<svg width="133" height="40" viewBox="0 0 133 40" fill="none" xmlns="http://www.w3.org/2000/svg">
<path d="M16.7389 1.21845C15.7455 1.57825 15.1118 2.10939 13.9129 3.65141C13.2792 4.45668 12.3372 5.43329 11.8063 5.82736C11.2753 6.22143 10.1963 7.14664 9.40847 7.91765C5.04103 12.0982 1.82112 17.7351 1.18741 22.2926C0.793487 25.0511 0.999014 25.548 2.00952 24.3315L2.54046 23.6805V24.3658C2.54046 25.2567 2.95152 26.9872 3.43108 28.1009C3.94489 29.3174 5.09242 31.1335 5.34932 31.1335C5.45209 31.1335 5.89739 30.4482 6.30845 29.5915C6.7195 28.7348 7.11343 28.0495 7.16481 28.0495C7.21619 28.0666 7.6615 28.7177 8.17531 29.523C9.20294 31.1678 11.1897 33.3609 12.6284 34.4574C14.5809 35.948 17.0815 37.1988 18.9483 37.61L19.582 37.7642L19.5992 34.92C19.5992 32.607 19.6677 31.7675 19.976 30.4482C20.7124 27.2614 22.1511 25.0854 24.0865 24.2287C24.6174 23.9889 26.0732 23.5948 27.2893 23.3378C32.2904 22.3269 34.2772 21.573 35.2705 20.3223C35.5446 19.9796 36.0241 19.1572 36.3324 18.5061C36.7777 17.5467 36.8805 17.1355 36.8805 16.1589C36.8805 14.6854 36.812 14.634 33.9175 13.5717C31.2799 12.6294 29.5329 11.8241 29.139 11.3957C28.9849 11.2244 28.5396 10.4363 28.1456 9.66526C27.5976 8.53445 27.2721 8.10611 26.45 7.45504C25.1826 6.44417 23.487 5.72456 21.3633 5.29622L19.7533 4.97069L19.6505 3.77134C19.5135 2.28073 19.1367 1.54399 18.3831 1.21845C17.6809 0.927181 17.5439 0.927181 16.7389 1.21845Z" fill="white"/>
<path d="M49.6404 19.7569V33.7207L56.6283 33.6522C62.6228 33.6008 63.7361 33.5494 64.6267 33.2924C66.9902 32.5899 68.9256 31.0479 69.7991 29.1461C70.7068 27.1586 70.724 24.2801 69.8334 22.5325C69.0284 20.9562 66.9389 19.3457 65.2946 19.0373L64.7294 18.9345L65.74 18.4205C68.2405 17.1697 69.5764 14.3085 68.9941 11.3958C68.4803 8.72293 66.682 6.87252 63.8731 6.08438C62.8797 5.81024 62.0234 5.77597 56.2001 5.77597H49.6404V19.7569ZM62.3145 9.99081C64.5924 11.036 65.2433 13.8458 63.6676 15.7648C62.5372 17.1526 60.8587 17.581 56.7139 17.5981H54.2647V13.5546V9.51107L57.9128 9.57961C61.1499 9.63101 61.6294 9.66528 62.3145 9.99081ZM62.8283 21.6073C64.1129 22.0871 64.8493 22.7039 65.3289 23.7147C65.7228 24.52 65.7742 24.777 65.7057 25.8393C65.6372 26.8159 65.5173 27.1928 65.1062 27.7582C63.9245 29.4545 62.8283 29.78 57.9985 29.8828L54.2647 29.9685V25.5652V21.1619L58.1697 21.2304C61.304 21.2989 62.2118 21.3675 62.8283 21.6073Z" fill="white"/>
<path d="M79.3731 13.0577C74.8344 14.2228 72.1283 18.6946 72.488 24.4514C72.6764 27.5183 73.4985 29.6429 75.1598 31.3734C76.9924 33.2752 78.962 34.0462 82.0449 34.0462C85.0079 34.0462 87.0118 33.3095 88.7931 31.5618C89.8207 30.5338 90.6428 29.1803 90.8483 28.0837L90.9682 27.5355H88.8102H86.6522L86.361 28.1694C86.0356 28.8205 84.9394 29.7114 84.0146 30.0541C83.7063 30.1569 82.8842 30.2597 82.1648 30.2597C81.0344 30.2768 80.7261 30.2083 79.8013 29.7457C78.277 28.9747 77.335 27.5697 77.078 25.6508L76.9239 24.6228H84.0146H91.0881V22.7724C91.0881 21.7444 90.9682 20.4593 90.8312 19.8425C90.0776 16.7071 88.0052 14.3084 85.1621 13.2975C83.8262 12.8178 80.8118 12.6979 79.3731 13.0577ZM83.4494 16.7756C84.477 17.084 85.8129 18.4719 86.2754 19.7055C86.9433 21.5216 87.3372 21.3674 81.8394 21.3674C79.2018 21.3674 77.0438 21.2989 77.0438 21.2304C77.0438 20.7506 77.6261 19.26 78.0714 18.5747C79.2018 16.8956 81.377 16.1588 83.4494 16.7756Z" fill="white"/>
<path d="M99.7031 13.0577C97.0141 13.6402 94.976 15.4221 94.2738 17.7694C93.7428 19.5341 93.6914 19.4827 96.1235 19.4827H98.2473L98.3672 19.0201C98.9152 16.7756 102.58 15.799 104.79 17.2897C105.578 17.8379 106.023 18.7803 106.126 20.1681L106.211 21.3332L104.43 21.436C98.6755 21.8129 97.408 22.0356 95.8323 22.9608C94.8903 23.5091 94.0682 24.4515 93.5887 25.4623C93.3146 26.0963 93.229 26.5931 93.229 27.8953C93.229 29.3859 93.2804 29.6258 93.7942 30.6709C94.445 31.9731 95.2843 32.7612 96.8428 33.4808C97.7677 33.9263 98.0246 33.9605 99.9257 33.9605C101.964 33.9605 101.998 33.9605 103.283 33.3095C104.173 32.8811 104.841 32.4014 105.372 31.8017L106.16 30.9279V32.3157V33.7035H108.387H110.63L110.579 25.7707L110.527 17.8551L109.962 16.7071C109.037 14.8053 107.308 13.5717 104.876 13.0577C103.403 12.7493 101.125 12.7493 99.7031 13.0577ZM106.16 25.4452C106.16 27.8953 104.824 29.5744 102.409 30.2083C101.501 30.431 101.142 30.4482 100.354 30.294C99.292 30.0712 98.4357 29.5572 98.0417 28.889C97.665 28.2551 97.6992 27.0557 98.1103 26.3875C98.8125 25.2225 100.234 24.8798 105.441 24.6571L106.16 24.6228V25.4452Z" fill="white"/>
<path d="M121.917 12.9549C121.061 13.229 120.393 13.6574 119.708 14.4455C119.331 14.891 118.988 15.3365 118.971 15.4393C118.954 15.5421 118.903 15.0795 118.851 14.4284L118.749 13.229L116.488 13.1776L114.21 13.1262V23.4235V33.7207L116.488 33.6693L118.749 33.6179L118.834 26.6788C118.92 19.9796 118.937 19.7226 119.297 19.0544C119.776 18.1464 120.29 17.7009 121.318 17.2383C122.037 16.9127 122.345 16.8785 123.579 16.9813L125 17.0841V15.0452C125 13.0748 124.983 13.0063 124.623 12.9035C124.092 12.7664 122.448 12.8007 121.917 12.9549Z" fill="white"/>
</svg>
