<svg width="359" height="58" viewBox="0 0 359 58" fill="none" xmlns="http://www.w3.org/2000/svg">
<g clip-path="url(#clip0_67_187)">
<path d="M10.7055 33.8323C12.9006 41.1984 19.6331 46.6105 27.6666 46.8356V57.2486C13.8497 57.0025 2.42039 46.9924 0 33.8323H10.7055Z" fill="white"/>
<path d="M45.3849 34.3528H13.075V23.9429H45.3849V34.3528Z" fill="white"/>
<path d="M28.1877 0C42.2375 0 53.9246 10.0972 56.3754 23.4224H45.6699C43.4274 15.8976 36.45 10.4099 28.1877 10.4099C19.9254 10.4099 12.9479 15.8976 10.7055 23.4224H0C2.45075 10.0972 14.1378 0 28.1877 0Z" fill="white"/>
<path d="M78.666 44V13.04H84.256V44H78.666ZM81.332 44V39.571H100.94V44H81.332ZM81.332 30.24V25.897H99.435V30.24H81.332ZM81.332 17.469V13.04H100.467V17.469H81.332ZM104.461 44V22.07H109.75V27.23H109.879V44H104.461ZM119.855 44V30.154C119.855 28.8067 119.511 27.789 118.823 27.101C118.135 26.413 117.132 26.069 115.813 26.069C114.666 26.069 113.634 26.327 112.717 26.843C111.828 27.359 111.126 28.0757 110.61 28.993C110.123 29.9103 109.879 30.971 109.879 32.175L109.32 26.929C110.065 25.3237 111.155 24.048 112.588 23.102C114.021 22.1273 115.741 21.64 117.748 21.64C120.127 21.64 121.976 22.3137 123.295 23.661C124.642 25.0083 125.316 26.8 125.316 29.036V44H119.855ZM138.334 44.43C135.64 44.43 133.647 43.7993 132.357 42.538C131.096 41.248 130.465 39.3273 130.465 36.776V17.082L135.926 15.061V36.905C135.926 37.9657 136.213 38.754 136.786 39.27C137.36 39.786 138.263 40.044 139.495 40.044C139.983 40.044 140.413 40.0153 140.785 39.958C141.187 39.872 141.559 39.7717 141.903 39.657V43.871C141.559 44.043 141.072 44.172 140.441 44.258C139.811 44.3727 139.108 44.43 138.334 44.43ZM126.251 26.327V22.07H141.903V26.327H126.251ZM153.626 44.43C151.304 44.43 149.269 43.9427 147.52 42.968C145.8 41.9933 144.453 40.646 143.478 38.926C142.532 37.206 142.059 35.228 142.059 32.992C142.059 30.756 142.532 28.7923 143.478 27.101C144.453 25.381 145.8 24.048 147.52 23.102C149.24 22.1273 151.247 21.64 153.54 21.64C155.719 21.64 157.611 22.0987 159.216 23.016C160.821 23.9047 162.068 25.166 162.957 26.8C163.846 28.434 164.29 30.3403 164.29 32.519C164.29 32.9203 164.276 33.293 164.247 33.637C164.218 33.981 164.175 34.325 164.118 34.669H145.413V30.885H159.947L158.829 31.917C158.829 29.853 158.356 28.305 157.41 27.273C156.464 26.241 155.145 25.725 153.454 25.725C151.619 25.725 150.157 26.3557 149.068 27.617C148.007 28.8783 147.477 30.6987 147.477 33.078C147.477 35.4287 148.007 37.2347 149.068 38.496C150.157 39.7287 151.691 40.345 153.669 40.345C154.816 40.345 155.819 40.13 156.679 39.7C157.539 39.27 158.17 38.6107 158.571 37.722H163.688C162.971 39.786 161.753 41.42 160.033 42.624C158.342 43.828 156.206 44.43 153.626 44.43ZM166.84 44V13.04H172.258V44H166.84ZM176.504 44V13.04H181.922V44H176.504ZM186.169 44V22.07H191.587V44H186.169ZM185.911 18.458V12.481H191.802V18.458H185.911ZM205.298 53.245C202.403 53.245 200.024 52.6143 198.16 51.353C196.326 50.0917 195.236 48.386 194.892 46.236H200.052C200.31 46.9813 200.869 47.5547 201.729 47.956C202.618 48.386 203.765 48.601 205.169 48.601C207.205 48.601 208.71 48.1423 209.684 47.225C210.659 46.3363 211.146 44.9747 211.146 43.14V38.41L211.533 38.496C211.189 40.1013 210.315 41.3913 208.91 42.366C207.506 43.312 205.786 43.785 203.75 43.785C201.801 43.785 200.095 43.3263 198.633 42.409C197.2 41.4917 196.082 40.216 195.279 38.582C194.477 36.9193 194.075 34.9843 194.075 32.777C194.075 30.541 194.491 28.5917 195.322 26.929C196.154 25.2663 197.315 23.9763 198.805 23.059C200.325 22.113 202.088 21.64 204.094 21.64C206.158 21.64 207.85 22.1417 209.168 23.145C210.516 24.1197 211.347 25.4813 211.662 27.23L211.318 27.273V22.07H216.607V43.097C216.607 46.2217 215.59 48.687 213.554 50.493C211.548 52.3277 208.796 53.245 205.298 53.245ZM205.513 39.485C207.262 39.485 208.652 38.8973 209.684 37.722C210.745 36.518 211.275 34.841 211.275 32.691C211.275 30.541 210.745 28.8783 209.684 27.703C208.624 26.5277 207.219 25.94 205.47 25.94C203.75 25.94 202.36 26.542 201.299 27.746C200.239 28.9213 199.708 30.584 199.708 32.734C199.708 34.884 200.239 36.5467 201.299 37.722C202.36 38.8973 203.765 39.485 205.513 39.485ZM230.715 44.43C228.393 44.43 226.358 43.9427 224.609 42.968C222.889 41.9933 221.542 40.646 220.567 38.926C219.621 37.206 219.148 35.228 219.148 32.992C219.148 30.756 219.621 28.7923 220.567 27.101C221.542 25.381 222.889 24.048 224.609 23.102C226.329 22.1273 228.336 21.64 230.629 21.64C232.808 21.64 234.7 22.0987 236.305 23.016C237.911 23.9047 239.158 25.166 240.046 26.8C240.935 28.434 241.379 30.3403 241.379 32.519C241.379 32.9203 241.365 33.293 241.336 33.637C241.308 33.981 241.265 34.325 241.207 34.669H222.502V30.885H237.036L235.918 31.917C235.918 29.853 235.445 28.305 234.499 27.273C233.553 26.241 232.235 25.725 230.543 25.725C228.709 25.725 227.247 26.3557 226.157 27.617C225.097 28.8783 224.566 30.6987 224.566 33.078C224.566 35.4287 225.097 37.2347 226.157 38.496C227.247 39.7287 228.78 40.345 230.758 40.345C231.905 40.345 232.908 40.13 233.768 39.7C234.628 39.27 235.259 38.6107 235.66 37.722H240.777C240.061 39.786 238.842 41.42 237.122 42.624C235.431 43.828 233.295 44.43 230.715 44.43ZM243.929 44V22.07H249.218V27.23H249.347V44H243.929ZM259.323 44V30.154C259.323 28.8067 258.979 27.789 258.291 27.101C257.603 26.413 256.599 26.069 255.281 26.069C254.134 26.069 253.102 26.327 252.185 26.843C251.296 27.359 250.594 28.0757 250.078 28.993C249.59 29.9103 249.347 30.971 249.347 32.175L248.788 26.929C249.533 25.3237 250.622 24.048 252.056 23.102C253.489 22.1273 255.209 21.64 257.216 21.64C259.595 21.64 261.444 22.3137 262.763 23.661C264.11 25.0083 264.784 26.8 264.784 29.036V44H259.323ZM278.256 44.43C276.049 44.43 274.099 43.9427 272.408 42.968C270.745 41.9933 269.427 40.646 268.452 38.926C267.506 37.1773 267.033 35.1993 267.033 32.992C267.033 30.7847 267.506 28.8353 268.452 27.144C269.427 25.424 270.745 24.0767 272.408 23.102C274.099 22.1273 276.049 21.64 278.256 21.64C280.062 21.64 281.696 21.984 283.158 22.672C284.62 23.3313 285.824 24.2773 286.77 25.51C287.716 26.714 288.318 28.1187 288.576 29.724H283.373C283.058 28.5487 282.456 27.6313 281.567 26.972C280.678 26.3127 279.603 25.983 278.342 25.983C277.167 25.983 276.149 26.2697 275.289 26.843C274.458 27.4163 273.813 28.2333 273.354 29.294C272.895 30.3547 272.666 31.5873 272.666 32.992C272.666 34.4253 272.895 35.6723 273.354 36.733C273.813 37.7937 274.472 38.625 275.332 39.227C276.192 39.8003 277.195 40.087 278.342 40.087C279.603 40.087 280.678 39.7573 281.567 39.098C282.456 38.4387 283.058 37.5213 283.373 36.346H288.576C288.318 37.9513 287.702 39.3703 286.727 40.603C285.781 41.807 284.577 42.753 283.115 43.441C281.682 44.1003 280.062 44.43 278.256 44.43ZM300.694 44.43C298.372 44.43 296.337 43.9427 294.588 42.968C292.868 41.9933 291.521 40.646 290.546 38.926C289.6 37.206 289.127 35.228 289.127 32.992C289.127 30.756 289.6 28.7923 290.546 27.101C291.521 25.381 292.868 24.048 294.588 23.102C296.308 22.1273 298.315 21.64 300.608 21.64C302.787 21.64 304.679 22.0987 306.284 23.016C307.89 23.9047 309.137 25.166 310.025 26.8C310.914 28.434 311.358 30.3403 311.358 32.519C311.358 32.9203 311.344 33.293 311.315 33.637C311.287 33.981 311.244 34.325 311.186 34.669H292.481V30.885H307.015L305.897 31.917C305.897 29.853 305.424 28.305 304.478 27.273C303.532 26.241 302.214 25.725 300.522 25.725C298.688 25.725 297.226 26.3557 296.136 27.617C295.076 28.8783 294.545 30.6987 294.545 33.078C294.545 35.4287 295.076 37.2347 296.136 38.496C297.226 39.7287 298.759 40.345 300.737 40.345C301.884 40.345 302.887 40.13 303.747 39.7C304.607 39.27 305.238 38.6107 305.639 37.722H310.756C310.04 39.786 308.821 41.42 307.101 42.624C305.41 43.828 303.274 44.43 300.694 44.43ZM319.04 44L330.435 13.04H335.251L324.544 44H319.04ZM342.389 44L331.725 13.04H336.799L348.151 44H342.389ZM324.931 31.831H341.873V36.303H324.931V31.831ZM350.533 44V13.04H356.123V44H350.533Z" fill="white"/>
</g>
<defs>
<clipPath id="clip0_67_187">
<rect width="359" height="58" fill="white"/>
</clipPath>
</defs>
</svg>
