<svg width="132" height="40" viewBox="0 0 132 40" fill="none" xmlns="http://www.w3.org/2000/svg">
<path d="M86.499 14.5273C88.3348 13.6757 91.0512 13.588 92.8135 14.3369C94.5465 15.0712 95.0025 15.1154 96.2949 14.6602C97.7042 14.161 98.0127 14.1603 98.4531 14.6445C98.9378 15.1732 98.9378 15.9226 98.4531 16.3926C97.9391 16.9212 97.4396 16.8478 95.8389 16.04C95.0574 15.6493 94.4328 15.3442 94.415 15.3496C94.415 15.379 94.6497 15.8345 94.9287 16.3779C95.384 17.2444 95.4424 17.4946 95.4424 18.4492C95.4423 20.4904 94.6343 21.7977 92.8721 22.6494C91.6387 23.2367 90.6835 23.3838 88.334 23.3838C86.6454 23.3691 86.1898 23.4272 85.6611 23.6475C84.3396 24.2349 84.3842 25.4249 85.75 26.1738C86.0149 26.3206 87.1898 26.3944 90.1553 26.4678C92.4457 26.5265 94.428 26.6443 94.7373 26.7324C96.2794 27.2171 97.4846 28.5681 97.793 30.1689C98.4975 33.9725 94.5907 37.1739 89.2744 37.1592C84.9125 37.1592 82.2246 35.6168 82.2246 33.1201C82.2249 32.1803 83.1945 31.0938 85.1475 29.8604C86.0874 29.2729 86.087 29.258 85.6611 29.1699C84.6773 28.9496 83.9133 28.5823 83.4141 28.0684L82.9004 27.5254L82.4746 28.0977C81.9459 28.832 81.0057 29.2578 79.9336 29.2578C78.4798 29.2577 77.4956 28.4497 77.29 27.0986L77.2021 26.4531L76.7178 27.084C75.7191 28.4058 74.3967 29.1111 72.8105 29.2139C71.8856 29.2726 71.6067 29.2282 71.0928 28.9639C70.0207 28.4205 69.3447 26.7023 69.7266 25.5273C70.0939 24.4553 71.8565 23.0752 75.4395 21.1074L77.2314 20.1084V18.3896C77.2314 16.4514 77.143 16.2014 76.2031 15.7314C75.4834 15.3645 74.1765 15.3351 73.457 15.6729C73.1781 15.8197 72.7526 16.1137 72.5176 16.3486C72.1358 16.7304 72.0908 16.892 72.0908 17.6553C72.0908 18.698 71.9439 19.0217 71.3564 19.3301C70.4461 19.7997 69.6091 19.4475 69.374 18.4785C69.2565 18.038 69.5358 17.465 70.0938 17.0098C70.6078 16.5839 72.8257 15.3648 74.1475 14.792C76.5413 13.7346 77.4813 13.6465 78.6855 14.3809C79.875 15.1151 79.875 15.1005 79.875 20.9014C79.875 24.2471 79.9335 26.1122 80.0361 26.3496C80.2564 26.8343 80.9181 27.1875 81.623 27.1875C82.3571 27.1874 82.6951 26.8641 82.7686 26.0713C82.9007 24.7642 84.0903 23.6476 85.8086 23.207L86.499 23.0312L85.7793 22.6201C83.9141 21.5627 83.091 19.3443 83.7959 17.2588C84.1044 16.3336 85.3829 15.056 86.499 14.5273ZM93.5625 29.4785C92.5342 29.1995 89.406 29.0523 87.9521 29.2285C85.7789 29.5076 84.707 30.5656 84.707 32.4453C84.7071 33.5319 85.2362 34.3837 86.4551 35.2207C87.7179 36.0723 88.7311 36.3662 90.4492 36.3662C92.3143 36.3515 93.2837 36.0578 94.2529 35.1768C95.1341 34.3837 95.5749 33.6197 95.6924 32.6504C95.8685 31.0643 95.1045 29.9191 93.5625 29.4785ZM16.5029 13.8076L21.7168 10.4297C24.5806 8.56455 27.0631 6.97874 27.2246 6.89062C27.3828 6.82048 25.0048 9.25689 21.9375 12.3389L16.3564 17.9346L32.0703 17.9639L26.71 19.124C23.758 19.7555 20.8648 20.3874 20.2627 20.5195L19.1758 20.7549L23.4209 25.0137L27.665 29.2578L23.2002 26.3799C20.7498 24.7952 18.7099 23.5473 18.6621 23.5889C18.6181 23.6329 18.104 25.8799 17.5312 28.582C16.9438 31.299 16.4298 33.5614 16.3711 33.6055C16.3271 33.661 16.2832 31.0774 16.2832 27.8779C16.2832 24.6616 16.253 22.0469 16.2236 22.0469C16.1789 22.0569 14.0703 23.4042 11.5244 25.043C8.98366 26.7025 6.51586 28.2883 6.0459 28.582C5.37066 29.0077 6.35515 27.9505 10.7754 23.5303L16.3564 17.9346L8.49902 17.9199C4.18247 17.9199 0.805331 17.8615 1.00879 17.8027C1.2144 17.7293 4.10765 17.0975 7.44141 16.3926L13.5068 15.0859L9.35059 10.915C7.0595 8.62396 5.32673 6.81719 5.48828 6.89062C5.66454 6.97876 7.63284 8.24137 9.89453 9.69531C12.1415 11.1493 14.0067 12.3243 14.0508 12.2949C14.0816 12.2438 14.4627 10.5575 14.9023 8.50586C15.3429 6.46475 15.8422 4.15945 16.0332 3.39551L16.3564 2L16.5029 13.8076ZM45.9785 6.3623L54.8057 6.40625L55.877 8.97559C56.4644 10.3855 56.8908 11.6053 56.832 11.6641C56.7573 11.7213 55.9205 10.9869 54.9668 10.0332C52.9255 7.97724 51.8969 7.34548 50.208 7.05176C49.0328 6.84633 44.0016 6.77337 43.8057 6.94922C43.7469 7.00796 43.673 9.35802 43.6289 12.1484L43.5557 17.2441L45.5967 17.1709C47.2269 17.1122 47.8001 17.0241 48.4463 16.7744C49.7973 16.2457 50.5026 15.4378 51.0166 13.793C51.2221 13.1177 51.442 12.7063 51.5889 12.6768C51.7945 12.6327 51.8242 13.1323 51.8242 17.6406C51.8242 22.1347 51.7945 22.6495 51.5889 22.6055C51.4567 22.576 51.192 22.1206 50.957 21.5332C49.8849 18.7722 48.7838 18.0229 45.5234 17.8467L43.7607 17.7441L43.6582 18.3164C43.5995 18.6248 43.5995 20.6663 43.6436 22.8545C43.7317 27.2604 43.835 27.8192 44.5693 28.2451C46.0094 29.0819 51.3987 28.8911 53.293 27.9219C54.2329 27.4371 55.7896 25.8503 56.7441 24.4111C57.2287 23.677 57.699 23.0752 57.8018 23.0752C57.9043 23.0753 57.9921 23.1191 57.9922 23.1777C57.9922 23.2512 57.6397 24.6316 57.2285 26.2617L56.4502 29.2432H46.6543C41.2541 29.2432 36.8509 29.1847 36.8438 29.126C36.8438 29.0526 37.2402 28.8909 37.71 28.7588C38.3267 28.5826 38.7676 28.3475 39.1641 27.9658C39.7075 27.4518 39.7515 27.3194 39.9131 26.1592C40.1774 24.3236 40.0748 8.46655 39.8105 7.94824C39.5315 7.41959 39.0322 7.09621 38.21 6.90527C37.8281 6.80247 37.4162 6.71394 37.3281 6.68457C37.2256 6.65509 37.1378 6.56744 37.1377 6.47949C37.1377 6.37669 39.9279 6.34762 45.9785 6.3623ZM62.8975 13.8369C62.9709 13.8222 63.0001 14.7477 62.9414 16.0547L62.8535 18.3018L63.4561 17.1562C64.7337 14.7187 66.3926 13.5441 67.9346 13.9551C69.8584 14.4691 69.668 17.2001 67.7148 17.2002C67.4505 17.2002 67.0536 17.0242 66.7158 16.7451C65.9229 16.1137 65.512 15.982 65.0127 16.1875C64.4693 16.4078 63.9545 17.0246 63.4111 18.0967L62.9854 18.9482V28.2148L63.3379 28.4355C63.6169 28.6265 64.9976 28.9492 65.5264 28.9492C65.5851 28.9492 65.6289 29.0086 65.6289 29.0967C65.6266 29.1847 64.3495 29.2432 62.1045 29.2432C60.1677 29.2432 58.583 29.1847 58.5801 29.1113C58.5801 29.0379 58.8733 28.9055 59.2256 28.8174C60.3711 28.5383 60.3418 28.7143 60.3418 22.4873C60.3418 18.2877 60.2982 16.907 60.166 16.7305C60.0632 16.613 59.6669 16.3336 59.2852 16.1133C58.8886 15.893 58.5801 15.673 58.5801 15.6143C58.5816 15.5109 62.6032 13.8519 62.8975 13.8369ZM118.765 13.8223C118.897 13.8223 118.941 14.2633 118.941 15.541V17.2734L119.338 16.7598C120.63 15.0563 122.422 13.9544 124.037 13.8516C125.285 13.7634 126.108 14.0867 126.857 14.9385C127.944 16.1721 127.959 16.2758 128.018 22.6055L128.062 28.2148L128.399 28.4355C128.59 28.5677 129.016 28.7147 129.368 28.7734C129.706 28.8322 129.985 28.9353 130 29.0234C130.011 29.1114 128.836 29.1845 126.769 29.2139C124.054 29.2432 123.495 29.214 123.494 29.0381C123.494 28.9059 123.744 28.8029 124.214 28.7441C125.476 28.5827 125.433 28.7872 125.374 23.1924C125.33 18.5663 125.315 18.2721 125.021 17.6406C124.419 16.3631 123.64 15.8789 122.245 15.8789C121.305 15.879 120.66 16.1582 119.72 16.9805L119.088 17.5234V28.377L119.602 28.5967C119.88 28.6994 120.247 28.8026 120.409 28.8027C120.571 28.8027 120.703 28.9059 120.703 29.0234C120.703 29.214 120.305 29.2432 117.663 29.2139C115.595 29.1845 114.611 29.1114 114.579 29.0088C114.55 28.906 114.785 28.8029 115.152 28.7441C116.206 28.5772 116.293 28.8365 116.298 24.458V16.3926L115.401 15.8936C114.917 15.6292 114.55 15.379 114.579 15.3496C114.686 15.2454 118.559 13.8372 118.765 13.8223ZM104.255 14.0576C105.445 13.7346 107.339 13.7638 108.499 14.1162C111.671 15.0561 113.713 17.9052 113.713 21.3857C113.698 27.3191 108.014 30.9324 102.668 28.3916C100.92 27.5691 99.3195 25.4543 98.8936 23.4131C97.983 19.1246 100.275 15.1297 104.255 14.0576ZM108.925 15.6436C107.941 14.5568 106.487 14.087 105.209 14.4395C103.961 14.7774 102.522 16.7747 101.949 18.9629C101.626 20.2259 101.626 23.2074 101.964 24.5879C102.669 27.525 104.563 29.0966 106.986 28.7295C107.53 28.6561 107.824 28.4799 108.396 27.9512C109.469 26.9525 110.114 25.6155 110.496 23.6035C111.083 20.5194 110.452 17.3031 108.925 15.6436ZM77.1289 20.7402C77.0555 20.7549 76.3506 21.1658 75.5283 21.665C72.826 23.3099 72.2383 23.9566 72.2383 25.249C72.2385 26.6146 73.3839 27.4663 74.9258 27.2754C75.8363 27.1432 76.3503 26.8931 76.8496 26.3057C77.2313 25.8506 77.2314 25.8354 77.2314 23.2803C77.2314 21.8715 77.1876 20.7272 77.1289 20.7402ZM89.4209 14.4102C88.819 14.4102 88.4521 14.5131 88.0117 14.7773C87.3068 15.1885 86.5866 16.231 86.3369 17.1855C86.2488 17.538 86.1758 18.3022 86.1758 18.875C86.1905 20.7252 86.8513 21.9731 88.1582 22.5752C90.1556 23.5151 92.0794 22.3844 92.7256 19.8877C93.4891 16.9359 91.9762 14.4248 89.4209 14.4102Z" fill="white"/>
</svg>
