<svg width="131" height="40" viewBox="0 0 131 40" fill="none" xmlns="http://www.w3.org/2000/svg">
<path d="M26.2597 1.91429C26.5321 1.98163 26.6728 2.17371 26.6818 2.49053C26.7048 3.31016 26.7132 4.13299 26.7068 4.95903C26.7067 4.96598 26.7082 4.97285 26.711 4.97924C26.7137 4.98562 26.7178 4.99137 26.723 4.99615C26.7281 5.00092 26.7342 5.00461 26.7408 5.007C26.7474 5.00939 26.7545 5.01041 26.7616 5.01002C27.3 4.98116 27.8327 4.95647 28.3597 4.93595C29.602 4.88785 30.101 5.40733 30.1096 6.65217C30.1186 7.79118 30.1212 9.16204 30.1173 10.7647C30.1173 10.859 30.1433 10.9533 30.1952 11.0476C30.1981 11.0528 30.2023 11.0571 30.2075 11.06C30.2126 11.063 30.2184 11.0645 30.2244 11.0644C30.2303 11.0643 30.2361 11.0626 30.2411 11.0595C30.2461 11.0563 30.2502 11.0519 30.2529 11.0466C30.6074 10.3681 30.9561 9.75496 31.2991 9.20725C32.4029 7.44422 33.8971 6.16731 35.7818 5.37655C36.6343 5.01868 37.4779 4.82724 38.3125 4.80223C40.8779 4.72431 43.4433 5.61705 45.1 7.63341C45.3372 7.92201 45.5891 8.27315 45.8558 8.68681C45.9451 8.82565 46.0632 8.94374 46.2019 9.03313C47.4827 9.85597 48.4997 10.9543 49.2529 12.328C49.5837 12.9328 49.9051 13.595 50.2173 14.3145C50.2222 14.3252 50.2306 14.3338 50.241 14.3391C50.2515 14.3444 50.2634 14.346 50.2748 14.3437C50.2863 14.3413 50.2966 14.3352 50.3042 14.3262C50.3117 14.3173 50.316 14.306 50.3164 14.2943C50.3241 13.7377 50.3237 13.1944 50.3154 12.6647C50.2801 10.3322 50.2497 7.99128 50.2241 5.64206C50.2164 4.93691 50.6077 4.87823 51.2337 4.69545C52.3279 4.37606 53.4292 4.15416 54.5375 4.02974C56.0247 3.86299 57.5019 3.9329 58.9692 4.23945C61.0423 4.6714 62.8096 5.63052 63.9702 7.41215C64.0497 7.53336 64.1744 7.73859 64.3442 8.02783C64.4095 8.13958 64.5061 8.22986 64.6221 8.28758C66.1888 9.06872 67.25 10.2517 67.8058 11.8364C68.6471 14.2366 68.0086 16.8369 66.4413 18.7898C66.2 19.0909 66.051 19.3391 66.1942 19.6912C66.4279 20.2655 66.8154 20.6638 67.3663 21.0332C67.8856 21.3821 68.457 21.8355 69.0808 22.3935C69.0851 22.3975 69.0905 22.4001 69.0963 22.401C69.1022 22.4019 69.1081 22.4011 69.1135 22.3986C69.1188 22.3962 69.1233 22.3922 69.1264 22.3871C69.1295 22.3821 69.131 22.3763 69.1308 22.3704C69.1179 21.1961 69.0622 16.606 68.9635 8.60023C68.951 7.55934 68.9808 6.64351 68.975 5.61609C68.9724 5.17549 69.1881 4.88528 69.6221 4.74547C71.9952 3.98035 74.4109 3.75108 76.8692 4.05764C79.2115 4.34912 81.2057 5.31113 82.649 7.20724C82.8817 7.51412 82.9971 7.87872 83.2807 8.16059C83.4115 8.29078 83.5205 8.37961 83.6077 8.42707C85.6833 9.57185 86.7795 11.3381 86.8961 13.7258C86.9981 15.8153 86.1509 17.7075 84.775 19.2035C84.7557 19.2245 84.7429 19.2506 84.7379 19.2788C84.733 19.3069 84.7362 19.3358 84.7471 19.3622C84.9548 19.8624 85.2154 20.3232 85.6384 20.7186C85.7192 20.7943 85.9426 20.9341 86.3086 21.1381C86.7923 21.4074 87.0913 21.7374 87.5231 22.077C87.5289 22.0816 87.536 22.0844 87.5435 22.0852C87.5509 22.086 87.5584 22.0848 87.5651 22.0815C87.5717 22.0783 87.5773 22.0733 87.5811 22.067C87.5849 22.0607 87.5868 22.0535 87.5865 22.0462C87.5397 15.434 87.5208 10.1276 87.5298 6.12691C87.5304 5.81843 87.5641 5.58466 87.6307 5.42561C87.6452 5.39153 87.6681 5.36174 87.6971 5.33903C87.8189 5.24154 87.9849 5.18895 88.1952 5.18126C94.3272 4.95551 97.9958 4.81634 99.2009 4.76375C99.7663 4.73938 100.226 4.74162 100.579 4.77048C100.928 4.79998 101.12 4.99495 101.153 5.35538C101.212 5.99479 101.248 6.61304 101.26 7.21013C101.262 7.29927 101.311 7.37784 101.408 7.44582C101.464 7.48558 101.554 7.5045 101.678 7.50258C102.345 7.49296 102.81 7.49296 103.073 7.50258C103.624 7.52246 104.011 7.76649 104.233 8.23467C104.446 8.68488 104.338 9.63535 104.356 10.0644C104.356 10.0708 104.358 10.077 104.361 10.0825C104.365 10.088 104.369 10.0927 104.375 10.096C104.38 10.0993 104.386 10.1012 104.393 10.1016C104.399 10.102 104.406 10.1007 104.411 10.0981C104.481 10.066 104.526 10.0166 104.547 9.94992C105.127 8.12917 106.157 6.69193 107.636 5.63821C108.718 4.86572 110.095 4.31834 111.397 4.04032C113.266 3.64205 115.059 3.88864 116.777 4.7801C117.602 5.20852 118.295 5.81105 118.858 6.58771C119.014 6.8032 119.211 7.10174 119.447 7.48334C119.483 7.54135 119.527 7.59359 119.579 7.63822C119.619 7.6735 119.818 7.79952 120.175 8.01629C121.763 8.98118 122.763 10.5877 123.318 12.3963C123.567 13.2063 123.727 13.9346 123.799 14.6955C123.862 15.3602 123.235 15.4199 122.588 15.5959C121.3 15.9461 119.923 16.3867 118.549 16.556C117.976 16.6266 117.612 16.3915 117.458 15.8509C117.279 15.2268 117.067 14.4989 116.819 13.6671C116.731 13.3699 116.615 13.1726 116.288 13.2342C115.782 13.3275 115.157 13.5536 114.689 13.24C114.655 13.2165 114.613 13.2049 114.571 13.2068C114.529 13.2087 114.489 13.2241 114.456 13.2506C114.136 13.5116 113.885 13.8072 113.703 14.1375C113.432 14.6272 113.744 14.8687 114.126 15.0755C115.412 15.7701 116.658 16.4646 117.863 17.1592C118.894 17.7528 119.547 18.6445 120.238 19.6335C120.252 19.6527 120.331 19.7374 120.475 19.8874C120.512 19.9258 120.553 19.9597 120.598 19.9885C121.132 20.3354 121.468 20.5641 121.605 20.6744C123.236 21.9865 124.233 23.6822 124.596 25.7615C124.647 26.0552 124.692 26.4275 124.731 26.8783V27.7413C124.607 29.8461 123.934 31.7073 122.712 33.3247C121.572 34.8345 120.101 35.8305 118.298 36.3127C117.219 36.6013 116.093 36.7158 114.92 36.6562C111.519 36.4843 108.961 34.9618 107.248 32.0886C107.236 32.0682 107.22 32.0503 107.201 32.0357L104.993 30.2781C104.988 30.2736 104.981 30.2708 104.974 30.2701C104.967 30.2693 104.96 30.2705 104.954 30.2737C104.947 30.2768 104.942 30.2817 104.939 30.2878C104.935 30.2939 104.933 30.3009 104.934 30.3079C104.938 30.465 104.937 31.8324 104.931 34.4099C104.929 34.7504 104.87 35.0381 104.753 35.2728C104.53 35.7173 103.54 35.7201 103.12 35.7355C102.144 35.7695 98.7705 35.8725 93 36.0443C92.4487 36.0604 92.0048 36.0617 91.6682 36.0482C91.3323 36.0347 91.0519 35.9097 90.8269 35.673C90.5327 35.3632 90.5106 34.9505 90.5125 34.4782C90.5157 33.4476 90.5157 32.8861 90.5125 32.7937C90.5122 32.7854 90.5103 32.7773 90.5069 32.7697C90.5035 32.7621 90.4986 32.7553 90.4925 32.7497C90.4864 32.7441 90.4792 32.7397 90.4715 32.7368C90.4637 32.734 90.4554 32.7327 90.4471 32.7331C90.1964 32.7434 89.4977 32.7434 88.3509 32.7331C88.0029 32.7299 87.8029 32.5606 87.7509 32.2252C87.7067 31.9443 87.6647 31.5229 87.625 30.9611C87.6241 30.951 87.6206 30.9413 87.6148 30.9329C87.609 30.9246 87.6012 30.918 87.592 30.9138C87.5829 30.9096 87.5728 30.9079 87.5629 30.9089C87.553 30.91 87.5435 30.9137 87.5356 30.9197C87.4977 30.9473 87.467 30.9781 87.4432 31.0121C86.2702 32.6751 84.7881 33.9642 82.9971 34.8793C80.9234 35.9382 78.6881 36.533 76.2913 36.6639C75.0548 36.7319 73.8577 36.6161 72.7 36.3166C72.2141 36.1909 71.966 35.8795 71.9558 35.3825C71.9474 34.9586 71.9452 34.3127 71.949 33.445C71.9492 33.4197 71.9401 33.3953 71.9234 33.3763C71.9068 33.3573 71.8837 33.3451 71.8586 33.3421C71.1183 33.2465 70.4564 33.1378 69.8731 33.0159C69.6474 32.9691 69.4545 32.872 69.2942 32.7245C69.2708 32.7023 69.253 32.675 69.2423 32.6446C69.1827 32.4708 69.1519 32.3525 69.15 32.2896C69.1372 31.8388 69.1346 31.3385 69.1423 30.7889C69.1426 30.7762 69.1387 30.7638 69.1313 30.7536C69.1238 30.7433 69.1132 30.7358 69.1011 30.7322C69.0889 30.7286 69.0759 30.7291 69.0641 30.7336C69.0523 30.7381 69.0422 30.7464 69.0356 30.7572C67.8721 32.5741 66.3208 33.9706 64.3817 34.9467C61.2952 36.4994 58.0462 37.1285 54.5933 36.5138C53.7596 36.3656 53.3125 36.1588 53.3087 35.2478C53.3067 34.6501 53.3077 34.0463 53.3115 33.4363C53.3116 33.4197 53.3055 33.4037 53.2943 33.3912C53.2831 33.3788 53.2677 33.3709 53.251 33.369C52.5375 33.2888 51.8773 33.1869 51.2702 33.0631C50.4721 32.9005 50.4019 32.5734 50.4039 31.8105C50.4051 31.1461 50.4042 30.1072 50.401 28.6936C50.4019 28.6856 50.3998 28.6774 50.3949 28.6709C50.39 28.6643 50.3828 28.6599 50.3748 28.6586C50.3667 28.6572 50.3585 28.659 50.3517 28.6635C50.345 28.6681 50.3402 28.6751 50.3385 28.6831C49.9846 29.6932 49.6199 30.6042 49.2442 31.4161C48.1058 33.8769 46.0721 36.1069 43.4635 36.9342C40.6519 37.826 37.9144 37.0083 35.9029 34.9169C34.677 33.6432 33.3875 32.2271 32.0721 30.9726C31.7856 30.6994 31.5048 30.3579 31.326 30.0693C30.892 29.3696 30.5542 28.836 30.3125 28.4685C30.2683 28.4012 30.2189 28.346 30.1645 28.3031C30.1589 28.2987 30.1521 28.2959 30.1451 28.2951C30.138 28.2942 30.1308 28.2954 30.1245 28.2984C30.1181 28.3015 30.1128 28.3062 30.1092 28.3122C30.1055 28.3181 30.1037 28.325 30.1039 28.3319C30.1238 30.4054 30.1568 32.6231 30.2029 34.9852C30.2132 35.4886 30.1885 35.9186 30.1289 36.2752C30.0481 36.7572 29.6279 36.9207 29.176 36.9784C27.8657 37.1446 26.392 37.2917 24.7548 37.42C24.3212 37.4546 23.5654 37.3767 23.275 37.0054C23.1302 36.8207 23.0561 36.6427 23.0529 36.4715C23.0395 35.775 23.0404 35.0034 23.0558 34.1569C23.0561 34.1469 23.0543 34.1369 23.0506 34.1276C23.0468 34.1183 23.0412 34.1099 23.0341 34.1029C23.027 34.0958 23.0185 34.0903 23.0092 34.0867C22.9998 34.0831 22.9898 34.0814 22.9798 34.0818C22.3401 34.1017 21.7141 34.0988 21.102 34.0732C20.6231 34.053 20.1914 33.9731 20.0904 33.444C20.0366 33.1631 20.0016 32.6824 19.9856 32.002C19.9837 31.916 19.9837 29.7599 19.9856 25.5335C19.9856 25.4405 19.9782 25.3545 19.9635 25.2756C19.9614 25.264 19.955 25.2536 19.9455 25.2464C19.9361 25.2393 19.9243 25.236 19.9125 25.2372L16.4645 25.5152C16.4464 25.5164 16.4296 25.5244 16.4172 25.5377C16.4049 25.5509 16.3981 25.5683 16.3981 25.5864C16.3879 28.702 16.4308 32.1232 16.527 35.85C16.5398 36.3612 16.5234 36.7126 16.4779 36.9044C16.3577 37.4104 15.8962 37.4739 15.4779 37.5354C13.8754 37.7715 12.3686 37.9549 10.9577 38.0857H10.6347C9.59428 38.0068 9.42217 37.2055 9.4164 36.3301C9.41319 35.7657 9.41448 35.2016 9.42025 34.6379C9.42037 34.6293 9.41878 34.6208 9.41556 34.6128C9.41234 34.6048 9.40756 34.5975 9.40149 34.5913C9.39542 34.5852 9.38818 34.5803 9.38018 34.5769C9.37217 34.5735 9.36357 34.5716 9.35486 34.5715C8.54012 34.5683 7.93916 34.5686 7.55198 34.5725C6.97986 34.5792 6.64044 34.4897 6.62698 33.8519C6.50871 28.2155 6.50679 23.4074 6.46256 16.0317C6.44781 13.5209 6.38339 10.1253 6.26929 5.84504V4.7118C6.26929 4.19616 6.50647 3.90628 6.98082 3.84215C8.83916 3.59138 10.7177 3.45061 12.6164 3.41983C12.7818 3.41726 12.9295 3.48877 13.0597 3.63435C13.1276 3.71003 13.1674 3.89858 13.1789 4.20001C13.1853 4.36484 13.1856 5.10173 13.1799 6.4107C13.1798 6.4174 13.1812 6.42402 13.1838 6.43017C13.1865 6.43632 13.1904 6.44186 13.1952 6.44646C13.2001 6.45105 13.2058 6.4546 13.2121 6.45689C13.2184 6.45918 13.2251 6.46016 13.2318 6.45976C14.044 6.41872 14.4959 6.39435 14.5875 6.38665C15.8741 6.27506 16.4577 6.65409 16.45 7.99994C16.4404 9.85725 16.4141 12.336 16.3712 15.4362C16.371 15.4437 16.3724 15.4511 16.3754 15.458C16.3783 15.4648 16.3827 15.471 16.3882 15.4761C16.3938 15.4812 16.4003 15.4851 16.4075 15.4875C16.4147 15.4899 16.4223 15.4908 16.4299 15.4901L19.8568 15.165C19.8761 15.163 19.8939 15.1541 19.9069 15.1399C19.9199 15.1256 19.927 15.1071 19.927 15.088C19.9295 10.2119 19.9321 6.63004 19.9347 4.34239C19.9356 3.87389 19.9558 3.21492 20.025 2.80991C20.0674 2.56107 20.218 2.42415 20.477 2.39914C22.259 2.22598 24.043 2.06436 25.8289 1.91429H26.2597ZM25.3606 2.63483L24.6866 2.72045L24.4943 2.72718C24.4725 2.74065 24.4488 2.74706 24.4231 2.74642C24.4398 2.6964 24.4282 2.69736 24.3885 2.74931L23.9683 2.79741C23.9254 2.76085 23.8891 2.76502 23.8597 2.80991L21.7548 3.04079C21.7536 3.01899 21.744 3.00809 21.726 3.00809C21.7042 3.00745 21.6949 3.02284 21.6981 3.05426L20.7347 3.14469C20.7178 3.14636 20.7021 3.15419 20.6907 3.16664C20.6793 3.1791 20.6731 3.19528 20.6731 3.21203C20.6565 7.27683 20.6706 11.3496 20.7154 15.4305C20.7193 15.7704 20.5696 15.95 20.2664 15.9692C19.7164 16.0045 19.1683 16.0471 18.6222 16.0971C18.5555 16.0843 18.4936 16.0866 18.4366 16.1039C16.852 16.2649 15.2638 16.3829 13.6722 16.4579C13.369 16.4726 13.0645 16.4771 12.7587 16.4714C12.4241 16.4649 12.2561 16.2947 12.2549 15.9605C12.251 15.2281 12.2587 14.497 12.2779 13.7672C12.3042 13.7633 12.317 13.7566 12.3164 13.747C12.3151 13.7367 12.3045 13.73 12.2847 13.7268C12.2808 13.705 12.2843 13.6873 12.2952 13.6738L12.3183 10.6618L12.3799 6.45495L12.3943 4.15287C12.3308 4.13043 12.2587 4.12562 12.1779 4.13844L11.6049 4.17404L10.6414 4.26254C10.5702 4.25036 10.5061 4.25388 10.4491 4.27312L8.58371 4.44148C8.57281 4.39915 8.52377 4.40492 8.43659 4.45879L7.51832 4.55499C7.41768 4.53575 7.37602 4.54056 7.39332 4.56942C7.27281 4.57584 7.1789 4.60181 7.11159 4.64734C7.08595 4.66446 7.06503 4.68779 7.05075 4.71519C7.03646 4.74259 7.02928 4.77319 7.02986 4.80415L7.06736 6.91191L7.08082 8.43188L7.15967 11.4333L7.17313 12.7561L7.26736 20.2684C7.25134 20.3171 7.25134 20.3652 7.26736 20.4127V20.4608C7.25198 20.5095 7.2523 20.5576 7.26832 20.6051V20.6532C7.25422 20.7019 7.25422 20.75 7.26832 20.7975V20.8379C7.24973 20.8424 7.24044 20.8597 7.24044 20.8899C7.24044 20.9219 7.25038 20.9392 7.27025 20.9418C7.27602 20.9803 7.27217 21.0091 7.25871 21.0284L7.26063 22.0029C7.27153 21.9901 7.27538 22.0026 7.27217 22.0404C7.26127 22.0398 7.25294 22.0436 7.24717 22.052C7.24625 22.0532 7.24561 22.0547 7.24528 22.0563C7.24495 22.058 7.24494 22.0598 7.24525 22.0616C7.2523 22.0859 7.26416 22.0975 7.28082 22.0962L7.35967 31.5883L7.36736 33.193L7.41448 33.698C7.41588 33.7143 7.422 33.7297 7.43207 33.7426C7.44215 33.7554 7.45575 33.765 7.47121 33.7702C7.49877 33.7791 7.53243 33.7823 7.57217 33.7798C7.59717 33.7952 7.62666 33.7971 7.66063 33.7855L9.30198 33.7403C9.37698 33.7602 9.45069 33.7586 9.52313 33.7355C9.54428 33.7169 9.58275 33.7112 9.63851 33.7182C9.70262 33.7298 9.76704 33.7262 9.83178 33.7076L10.5039 33.6191C10.5411 33.6294 10.5738 33.6278 10.602 33.6143C10.6962 33.5784 10.8052 33.5598 10.9289 33.5585C10.9763 33.5669 11.0206 33.562 11.0616 33.5441C11.0674 33.5293 11.0876 33.5226 11.1222 33.5239C11.1952 33.5418 11.2459 33.5332 11.2741 33.4979L11.601 33.4508C11.6972 33.4719 11.7674 33.4591 11.8116 33.4123L12.0885 33.3584C12.1456 33.3783 12.1744 33.3735 12.1751 33.344C12.2674 33.2972 12.3462 33.2157 12.4116 33.0996L12.4068 27.2093C12.4068 27.2065 12.4058 27.2038 12.4038 27.2015C12.4019 27.1993 12.3992 27.1976 12.3962 27.1968C12.393 27.1955 12.3898 27.1945 12.3866 27.1939C12.3815 27.1772 12.3795 27.1602 12.3808 27.1429C12.4251 27.1362 12.4222 27.0996 12.3808 27.0948V27.0505C12.4241 27.0496 12.4241 26.9928 12.3731 26.9938L12.3587 26.1289C12.3677 26.0802 12.3664 26.0347 12.3549 25.9923C12.3369 24.6577 12.3244 23.3228 12.3174 21.9875C12.3167 21.8009 12.3808 21.6697 12.5097 21.594C12.5347 21.6274 12.5686 21.6184 12.6116 21.5671L12.8587 21.5277C12.9908 21.5386 13.119 21.5283 13.2433 21.4969L13.9289 21.4305C14.1068 21.4344 14.2702 21.417 14.4472 21.4045C14.4446 21.4039 14.4424 21.4032 14.4404 21.4026C14.434 21.4 14.4273 21.3972 14.4202 21.3939L14.9789 21.3391L15.6472 21.3026C15.6482 21.3026 15.6492 21.3022 15.6499 21.3014C15.6506 21.3007 15.651 21.2997 15.651 21.2987C15.651 21.2977 15.6506 21.2967 15.6499 21.296C15.6492 21.2953 15.6482 21.2949 15.6472 21.2949C15.6222 21.2929 15.5956 21.2933 15.5674 21.2958L16.1299 21.241L16.8462 21.1938L17.2895 21.1429L17.9529 21.1034L18.4433 21.0515L19.2077 20.9938L19.5943 20.9505L20.3241 20.9216C20.4792 20.937 20.5831 21.0143 20.6356 21.1534C20.6164 21.1618 20.61 21.174 20.6164 21.19C20.6241 21.208 20.635 21.2108 20.6491 21.1987L20.7193 22.6859L20.7356 23.6248L20.8193 32.9832C20.8174 33.007 20.8225 33.032 20.8347 33.0583C20.9856 33.4161 21.5981 33.293 21.9058 33.2622L22.4318 33.2276L22.9625 33.1689L23.4347 33.1343L23.9279 33.0727L24.4818 33.0352L25.0327 32.9765C25.1898 32.9784 25.3462 32.9688 25.502 32.9476C25.5026 32.947 25.5032 32.9467 25.5039 32.9467C25.4866 32.9486 25.4738 32.9435 25.4654 32.9313C25.7379 32.9063 25.9244 32.8081 26.025 32.6369C26.0648 32.6036 26.0792 32.5369 26.0683 32.4368L26.0654 31.4556L26.0423 28.9293C26.0122 28.88 26.0029 28.812 26.0145 28.7254L26.0087 28.3974L25.9693 26.5541L25.9481 24.4974L25.9116 23.5306L25.9097 23.2025L25.8731 21.3507L25.8404 17.6681L25.8154 12.6551L25.8202 11.6633L25.8433 9.82967L25.876 5.56317L25.8972 2.65503C25.8973 2.64842 25.8961 2.64185 25.8935 2.63575C25.891 2.62965 25.8872 2.62416 25.8824 2.61962C25.8776 2.61509 25.8719 2.61161 25.8656 2.60943C25.8594 2.60724 25.8528 2.60639 25.8462 2.60693L25.5443 2.62617C25.4757 2.61719 25.4145 2.62008 25.3606 2.63483ZM108.873 5.78444C108.803 5.79406 108.775 5.81394 108.788 5.84408C107.293 6.76568 106.127 7.95761 105.457 9.59013C105.414 9.60809 105.402 9.6408 105.42 9.68826L105.268 10.1202C105.224 10.1407 105.211 10.1888 105.228 10.2645C105.218 10.3485 105.194 10.4258 105.156 10.4963C105.126 10.5156 105.119 10.5502 105.135 10.6002L105.07 10.8831C105.025 10.9325 105.017 10.9777 105.048 11.0187L104.971 11.5555C104.929 11.6209 104.924 11.6796 104.955 11.7316L104.954 12.835C104.94 12.91 104.945 12.9822 104.969 13.0514L105.045 13.5565C105.035 13.5975 105.041 13.6376 105.062 13.6767L105.141 14.0057C105.132 14.0647 105.14 14.0952 105.164 14.0971L105.336 14.6166C105.33 14.6474 105.338 14.6689 105.36 14.6811L105.433 14.8552C105.431 14.8821 105.437 14.9027 105.451 14.9168L105.514 15.0495C105.503 15.1047 105.516 15.1281 105.553 15.1197L105.887 15.7383C105.882 15.7691 105.889 15.7944 105.908 15.8143C105.917 15.8239 105.928 15.8262 105.94 15.821C106.5 16.6522 107.211 17.3298 108.072 17.8538C108.055 17.9141 108.063 17.923 108.098 17.8807C108.185 17.916 108.263 17.9638 108.334 18.024C108.338 18.0497 108.349 18.0689 108.366 18.0818C108.368 18.0833 108.371 18.0842 108.373 18.0842C108.375 18.0842 108.378 18.0833 108.38 18.0818C108.387 18.0753 108.39 18.067 108.388 18.0567L108.822 18.3136C108.838 18.3842 108.852 18.3954 108.862 18.3473L109.487 18.7061C109.512 18.7664 109.531 18.7757 109.542 18.734L109.686 18.8187C109.711 18.8642 109.726 18.8687 109.733 18.8321L111.608 19.8355C111.592 19.8772 111.616 19.8907 111.678 19.8759L112.373 20.2136C112.38 20.2476 112.405 20.2626 112.449 20.2588L112.76 20.4194C112.758 20.4663 112.796 20.4865 112.876 20.48L112.906 20.5002C112.94 20.5605 112.987 20.5843 113.048 20.5714C113.067 20.5778 113.085 20.5868 113.1 20.5984C113.145 20.6657 113.178 20.683 113.199 20.6503C113.25 20.6619 113.287 20.684 113.312 20.7167C113.361 20.786 113.386 20.7981 113.388 20.7533L113.792 21.0024C113.834 21.0672 113.859 21.0848 113.868 21.0553L114.158 21.2679C114.187 21.3224 114.218 21.35 114.25 21.3507C114.267 21.3545 114.282 21.368 114.296 21.3911C114.306 21.4469 114.338 21.4674 114.39 21.4526C114.933 21.924 115.344 22.4781 115.622 23.115C115.59 23.1958 115.603 23.242 115.662 23.2535C115.744 23.41 115.796 23.5742 115.819 23.7461C115.81 23.7832 115.816 23.8099 115.838 23.8259C115.938 24.2973 115.942 24.7629 115.85 25.2227C115.786 25.2221 115.775 25.2737 115.815 25.3776C115.531 26.4442 114.88 27.2276 113.861 27.7278C113.807 27.7162 113.776 27.7275 113.765 27.7615L113.311 27.9289C113.215 27.9122 113.183 27.9205 113.214 27.9539C112.667 28.0873 112.116 28.1164 111.562 28.0414C111.53 28.0113 111.481 28.0016 111.417 28.0125C111.329 28.0074 111.249 27.9879 111.177 27.9539C111.17 27.9173 111.128 27.9083 111.048 27.9269L110.192 27.5383C110.215 27.5056 110.188 27.4879 110.113 27.4854C109.448 27.0765 108.899 26.3358 108.569 25.646C108.569 25.5832 108.553 25.5521 108.523 25.5527L108.125 24.6917C108.121 24.6829 108.115 24.6749 108.108 24.6683C108.101 24.6617 108.093 24.6566 108.083 24.6533C108.074 24.65 108.065 24.6485 108.055 24.649C108.045 24.6495 108.036 24.6519 108.027 24.6561L107.422 24.9466C107.377 24.9325 107.346 24.9418 107.33 24.9745C107.302 25.0104 107.27 25.029 107.234 25.0303C107.186 25.0233 107.155 25.039 107.14 25.0775L106.415 25.4199C106.333 25.4135 106.3 25.4296 106.318 25.468L104.033 26.5349C104.008 26.5464 103.988 26.5666 103.977 26.5917C103.966 26.6168 103.964 26.6451 103.972 26.6715C104.29 27.7009 104.79 28.6407 105.473 29.4912C105.451 29.4969 105.45 29.5098 105.47 29.5296C105.484 29.5444 105.495 29.5444 105.503 29.5296L106.533 30.5522C106.514 30.6164 106.522 30.6247 106.558 30.5773L107.281 31.0948C107.278 31.1237 107.285 31.1458 107.302 31.1612C107.304 31.1628 107.306 31.164 107.308 31.1647C107.311 31.1654 107.313 31.1656 107.315 31.1653C107.318 31.1651 107.32 31.1643 107.322 31.1631C107.324 31.1619 107.326 31.1602 107.327 31.1583C107.333 31.1513 107.336 31.142 107.338 31.1304L108.131 31.5845C108.136 31.6262 108.158 31.6383 108.196 31.621L108.49 31.7586C108.526 31.8189 108.586 31.8436 108.671 31.8327C108.692 31.8359 108.712 31.8429 108.731 31.8538C108.774 31.909 108.833 31.9314 108.91 31.9212L109.01 31.9635C109.022 31.9879 109.053 32.0004 109.101 32.001C109.123 32.0151 109.147 32.0199 109.174 32.0155L109.549 32.1386C109.587 32.2059 109.634 32.2197 109.689 32.18C109.716 32.1825 109.744 32.1905 109.775 32.204C109.804 32.2284 109.836 32.2361 109.871 32.2271C109.924 32.2252 109.967 32.2367 110 32.2617C110.028 32.2784 110.065 32.2864 110.111 32.2858L110.408 32.3608C110.453 32.3871 110.501 32.391 110.552 32.3724L110.896 32.4378C111.015 32.4731 111.138 32.4846 111.266 32.4724L112.86 32.4926C112.976 32.5221 113.085 32.5192 113.187 32.484C113.188 32.484 113.188 32.4837 113.189 32.4834C113.189 32.483 113.189 32.4825 113.189 32.482C113.189 32.4815 113.189 32.481 113.189 32.4807C113.188 32.4803 113.188 32.4801 113.187 32.4801C113.18 32.4769 113.172 32.4737 113.164 32.4705C113.201 32.4628 113.223 32.4647 113.232 32.4763C113.339 32.4949 113.44 32.4833 113.535 32.4416C113.603 32.4166 113.674 32.4044 113.748 32.4051C113.879 32.4089 113.999 32.39 114.108 32.3483L114.686 32.205C114.792 32.2229 114.859 32.2082 114.887 32.1607L115.16 32.0838C115.207 32.1062 115.242 32.0956 115.263 32.052L115.352 32.0155C115.486 32.018 115.537 32.0013 115.506 31.9654L115.973 31.7875C116.011 31.815 116.03 31.8054 116.032 31.7586C116.523 31.545 116.985 31.2821 117.417 30.9698C117.429 30.9916 117.445 30.9816 117.463 30.9399C118.749 29.9385 119.527 28.684 120.055 27.1439C120.1 27.1413 120.115 27.0938 120.101 27.0015L120.175 26.7581C120.197 26.7459 120.205 26.7151 120.2 26.6657L120.267 26.4733C120.295 26.456 120.303 26.424 120.289 26.3771L120.361 26.0876C120.394 26.0587 120.403 26.0109 120.388 25.9442L120.449 25.6075C120.496 25.5678 120.508 25.4873 120.485 25.3661C120.485 25.2872 120.498 25.2154 120.523 25.1506C120.54 25.1159 120.546 25.0678 120.542 25.0063C120.535 24.9396 120.543 24.8838 120.566 24.8389L120.583 24.4108L120.585 23.5758L120.564 23.0544L120.488 22.5772C120.5 22.4733 120.491 22.406 120.461 22.3752L120.387 22.0404C120.403 21.9583 120.393 21.9128 120.358 21.9038L120.103 21.1342C120.111 21.0996 120.102 21.0656 120.076 21.0322C119.568 19.8342 118.788 18.8401 117.738 18.05C117.182 17.6312 116.599 17.2535 115.988 16.9168C114.804 16.2632 113.603 15.645 112.383 15.062C112.017 14.8863 111.66 14.6984 111.311 14.4983C111.32 14.4598 111.301 14.4444 111.252 14.4521C110.528 13.9737 110.033 13.3323 109.767 12.5281C109.772 12.4409 109.769 12.4149 109.758 12.4502C109.729 12.4175 109.714 12.3761 109.711 12.3261C109.735 12.2113 109.727 12.1465 109.686 12.1318C109.63 11.9317 109.617 11.7235 109.647 11.5074C109.675 11.4503 109.682 11.3718 109.669 11.2717L109.692 11.1774C109.72 11.1499 109.729 11.1172 109.717 11.0793L109.884 10.6002C109.908 10.624 109.919 10.5929 109.916 10.5069C110.155 10.0195 110.491 9.62605 110.923 9.32654C110.983 9.34065 111.02 9.32173 111.032 9.26978L111.65 9.011C111.753 9.03281 111.836 9.0171 111.901 8.96387C112.228 8.9023 112.562 8.90294 112.901 8.96579C112.93 9.00235 112.965 9.00876 113.007 8.98503C113.297 9.02992 113.569 9.13061 113.822 9.2871C113.815 9.3243 113.844 9.34322 113.91 9.34386C114.021 9.40158 114.116 9.47309 114.194 9.55839C114.199 9.62508 114.223 9.64368 114.266 9.61418C114.721 10.124 115.012 10.7333 115.141 11.442C115.128 11.4824 115.136 11.5193 115.162 11.5526C115.207 11.6533 115.232 11.7575 115.236 11.8653C115.226 11.9082 115.233 11.9461 115.258 11.9788L115.337 12.3001C115.33 12.3347 115.337 12.3607 115.357 12.378C115.372 12.4717 115.399 12.5384 115.438 12.5781C115.574 12.5967 115.636 12.5817 115.625 12.5329L116.271 12.3848C116.392 12.4046 116.466 12.3915 116.493 12.3453L117.319 12.1568C117.338 12.1914 117.356 12.1859 117.372 12.1404L117.731 12.0721C117.816 12.0824 117.84 12.0792 117.804 12.0625C117.881 12.0253 117.964 12.0038 118.051 11.998C118.16 12.0166 118.219 12.0035 118.228 11.9586L118.433 11.9086C118.551 11.9233 118.647 11.9044 118.719 11.8518C118.781 11.8268 118.847 11.8127 118.916 11.8095C119.061 11.8146 119.085 11.8095 118.989 11.7941L119.302 11.7133C119.394 11.7338 119.474 11.7213 119.54 11.6758L119.761 11.618C119.775 11.6144 119.788 11.6066 119.797 11.5956C119.807 11.5846 119.813 11.571 119.815 11.5565C119.822 11.5103 119.821 11.4619 119.811 11.4112C119.829 11.2919 119.821 11.2124 119.786 11.1726C119.767 11.1489 119.757 11.1159 119.757 11.0735C119.769 11.0447 119.77 11.0177 119.759 10.9927C119.732 10.9453 119.718 10.892 119.715 10.833C119.734 10.717 119.724 10.641 119.686 10.605C119.652 10.5307 119.63 10.4466 119.62 10.353C119.637 10.2305 119.626 10.1657 119.587 10.1587C119.55 10.0868 119.528 10.007 119.521 9.91914C119.536 9.855 119.528 9.82294 119.498 9.82294L119.423 9.5834C119.438 9.52696 119.428 9.49489 119.392 9.4872C118.995 8.19041 118.406 7.02061 117.377 6.1144C117.367 6.10029 117.352 6.08651 117.332 6.07304C116.562 5.44581 115.679 5.04337 114.685 4.86572C114.697 4.83429 114.665 4.8266 114.588 4.84263C112.542 4.43602 110.637 4.74996 108.873 5.78444ZM73.6692 4.74739C73.6128 4.73136 73.5644 4.732 73.524 4.74932L72.8298 4.83686C72.8093 4.82211 72.7856 4.82339 72.7586 4.84071L72.1817 4.93883C72.117 4.92216 72.0868 4.92697 72.0913 4.95326L70.4971 5.32171C70.4484 5.31081 70.4186 5.3185 70.4077 5.3448L70.1183 5.41984C70.0824 5.39162 70.0529 5.40124 70.0298 5.4487C69.9157 5.50962 69.8333 5.60454 69.7827 5.73345C69.7282 5.80592 69.7208 5.90565 69.7606 6.03263L69.7635 11.7239L69.7788 14.7725L69.8615 24.4272L69.874 27.1804L69.9154 32.0289C69.9157 32.0623 69.9266 32.0947 69.9467 32.1214C69.9668 32.1481 69.9949 32.1676 70.0269 32.1771L70.3702 32.281C70.3856 32.3111 70.4439 32.3182 70.5452 32.3021L70.7846 32.3695C70.859 32.4112 70.9397 32.4201 71.0269 32.3964L71.4577 32.4657C71.491 32.4945 71.5336 32.4984 71.5856 32.4772C71.5907 32.4804 71.5958 32.484 71.601 32.4878C71.6721 32.5128 71.7526 32.5147 71.8423 32.4936C72.632 32.5577 73.4215 32.5583 74.2106 32.4955L74.7413 32.4599L75.0981 32.4012C75.234 32.4121 75.3529 32.3999 75.4548 32.3647L75.9048 32.2752C75.9727 32.2976 75.9977 32.2906 75.9798 32.254L76.1779 32.2079C76.3035 32.2188 76.4125 32.1989 76.5048 32.1482C76.5644 32.1149 76.6298 32.1001 76.7009 32.104C76.7971 32.1104 76.8311 32.0969 76.8029 32.0636L77.1288 31.9799C77.1634 32.0023 77.1827 31.9937 77.1865 31.9539L77.8567 31.7317C77.9304 31.7349 77.9548 31.7269 77.9298 31.7076C79.0465 31.2818 80.1045 30.7398 81.1038 30.0818C81.7622 29.6476 82.3596 29.1419 82.8961 28.5647C82.9192 28.6051 82.9362 28.5869 82.9471 28.5099C83.358 28.0437 83.7141 27.5412 84.0154 27.0024C84.0634 27.0012 84.0721 26.9822 84.0413 26.9457L84.4711 25.9914C84.5211 25.9888 84.5391 25.941 84.525 25.848C84.5346 25.789 84.5532 25.7406 84.5807 25.7028C84.6231 25.6919 84.6362 25.6428 84.6202 25.5556C84.6317 25.4825 84.6538 25.4193 84.6865 25.3661C84.7192 25.3488 84.7291 25.301 84.7163 25.2227C84.7182 25.1695 84.7304 25.1188 84.7529 25.0707C84.7644 25.0521 84.7711 25.0306 84.7731 25.0063C84.7775 24.9986 84.7817 24.9909 84.7856 24.9832C84.8157 24.9409 84.8256 24.8764 84.8154 24.7898C84.8205 24.7424 84.8314 24.7029 84.8481 24.6715C84.866 24.6907 84.8705 24.666 84.8615 24.5974C84.8647 24.5641 84.8718 24.549 84.8827 24.5522C84.9186 24.4778 84.9275 24.3807 84.9096 24.2607L84.9481 24.0125C84.959 23.9862 84.9622 23.9567 84.9577 23.924C84.9519 23.8714 84.958 23.8233 84.9759 23.7797L85.0019 23.7451C85.0033 23.7435 85.0041 23.7414 85.0041 23.7393C85.0041 23.7372 85.0033 23.7351 85.0019 23.7335C84.9955 23.7265 84.9872 23.7233 84.9769 23.7239C84.9763 23.7085 84.9791 23.6941 84.9856 23.6806L84.9942 22.5782C84.9654 22.5698 84.9519 22.5346 84.9538 22.4724C84.9634 22.4249 84.9622 22.3797 84.95 22.3367L84.9057 22.0885C84.9243 21.9942 84.915 21.9304 84.8779 21.8971C84.8683 21.8836 84.8618 21.8673 84.8586 21.848C84.867 21.7736 84.8654 21.7502 84.8538 21.7778C84.8243 21.7303 84.8096 21.6732 84.8096 21.6065C84.8237 21.5726 84.8157 21.5408 84.7856 21.5113L84.7182 21.2785C84.7279 21.2086 84.7189 21.174 84.6913 21.1746L84.5817 20.8687C84.5811 20.8206 84.5698 20.7969 84.5481 20.7975L84.3346 20.3155C84.3416 20.2456 84.3282 20.2142 84.2942 20.2213C83.5519 18.8854 82.4609 17.9352 81.0211 17.3708C81.0493 17.3413 81.0275 17.3295 80.9558 17.3352C80.6449 17.2313 80.3147 17.1188 79.9654 16.9976C79.9166 16.981 79.8745 16.949 79.8453 16.9063C79.8162 16.8637 79.8017 16.8126 79.8038 16.7609C79.8115 16.6099 80.0452 16.4031 80.2048 16.2684C80.2497 16.2556 80.2618 16.2398 80.2413 16.2212L81.2307 15.1861C81.282 15.1823 81.309 15.1502 81.3115 15.0899C81.641 14.6769 81.9272 14.2382 82.1702 13.7739C82.2259 13.7559 82.234 13.7377 82.1942 13.7191L82.4634 13.1005C82.5006 13.0973 82.5147 13.0652 82.5057 13.0043C82.5147 12.9363 82.5346 12.8719 82.5654 12.8109C82.6025 12.7987 82.6131 12.7657 82.5971 12.7118C82.6048 12.6233 82.6282 12.5445 82.6673 12.4752C82.7 12.4585 82.7102 12.4107 82.6981 12.3318L82.7683 11.9961C82.8003 11.9557 82.808 11.8909 82.7913 11.8018L82.8654 11.0812C82.9029 11.0774 82.9019 11.0293 82.8654 11.0254L82.8663 10.9773C82.8772 10.985 82.8856 10.9825 82.8913 10.9696C82.8971 10.9568 82.8884 10.9434 82.8654 10.9292C82.8647 10.9139 82.866 10.9017 82.8692 10.8927C82.909 10.7689 82.9074 10.6515 82.8644 10.5406L82.7856 9.77676C82.8099 9.6812 82.8029 9.61771 82.7644 9.58628L82.6904 9.2467C82.7109 9.17743 82.7016 9.13382 82.6625 9.11586L82.5 8.62235C82.5128 8.56335 82.4993 8.53385 82.4596 8.53385C82.1269 7.7636 81.6426 7.10816 81.0067 6.56751C81.0529 6.53929 81.0372 6.51973 80.9596 6.50883L80.8317 6.40974C80.8388 6.37703 80.8176 6.36324 80.7682 6.36837C80.367 6.08105 79.9417 5.83767 79.4923 5.63821C79.4897 5.60294 79.4647 5.59107 79.4173 5.60262L78.3875 5.21974C78.392 5.17549 78.3599 5.16747 78.2913 5.19569L78.1904 5.16298C78.1699 5.11873 78.1288 5.10718 78.0673 5.12835L77.7913 5.04658C77.7965 5.00489 77.7676 4.99976 77.7048 5.03119C76.3804 4.72014 75.0352 4.62554 73.6692 4.74739ZM52.8039 5.12931C52.7494 5.11841 52.7253 5.1229 52.7317 5.14278L52.0346 5.31979C51.9776 5.31209 51.9539 5.31722 51.9635 5.33518C51.5221 5.45254 51.1125 5.51219 51.0365 5.99031C51.0199 6.01211 51.0157 6.04161 51.0241 6.07881C51.0401 6.14294 51.0333 6.18976 51.0039 6.21926L51.0144 10.0625C51.0176 10.0695 51.0212 10.0766 51.025 10.0836C51.0269 10.0875 51.0279 10.0917 51.0279 10.0961L51.1067 20.2857L51.1087 23.823L51.1827 31.8779C51.1891 31.8926 51.1907 31.9116 51.1875 31.9346C51.1872 31.9371 51.1874 31.9394 51.1881 31.9416C51.1888 31.9438 51.1899 31.9457 51.1914 31.9472C51.1984 31.9555 51.209 31.959 51.2231 31.9577C51.4029 32.3954 52.0279 32.3926 52.425 32.4541C52.4583 32.4798 52.4994 32.4843 52.5481 32.4676L53.1981 32.5484C53.2648 32.5747 53.3446 32.5798 53.4375 32.5638L53.574 32.5715C53.5664 32.5785 53.5606 32.5846 53.5567 32.5898C53.556 32.5906 53.5555 32.5916 53.5553 32.5926C53.5552 32.5937 53.5553 32.5948 53.5557 32.5958C53.5561 32.5968 53.5567 32.5977 53.5576 32.5983C53.5585 32.5989 53.5595 32.5993 53.5606 32.5994L54.051 32.5927L55.1673 32.5879C55.2833 32.6116 55.3946 32.6077 55.501 32.5763C55.5631 32.5596 55.6276 32.5542 55.6942 32.56C55.7301 32.5715 55.7654 32.5702 55.8 32.5561L56.2289 32.4965C56.3712 32.508 56.4987 32.4933 56.6115 32.4522L57.0875 32.3704C57.1311 32.3801 57.1641 32.3711 57.1865 32.3435L57.3779 32.2983C57.5003 32.3156 57.5971 32.297 57.6683 32.2425L59.349 31.722C59.4599 31.7342 59.509 31.7163 59.4962 31.6682L59.8029 31.5508C59.8215 31.5656 59.8462 31.5569 59.8769 31.5248L60.1164 31.42C60.174 31.427 60.1888 31.4171 60.1606 31.3902L61.2683 30.8457C61.317 30.8617 61.3449 30.845 61.3519 30.7956C61.8596 30.5077 62.3141 30.2213 62.7154 29.9366C63.6981 29.2388 64.5115 28.3736 65.1558 27.3411C65.1917 27.3238 65.2074 27.291 65.2029 27.2429L65.6452 26.3743C65.6837 26.3826 65.6962 26.3515 65.6827 26.2809C65.6949 26.238 65.7125 26.2056 65.7356 26.1838C65.7772 26.1722 65.7904 26.1245 65.775 26.0404C65.7833 25.9821 65.8026 25.9337 65.8327 25.8952C65.8712 25.8849 65.8843 25.8426 65.8721 25.7682L65.9279 25.6056C65.9689 25.5921 65.9814 25.5431 65.9654 25.4584L65.9894 25.3593C66.0183 25.3587 66.0276 25.3292 66.0173 25.2708L66.0394 25.2237C66.067 25.1974 66.0756 25.149 66.0654 25.0784L66.0981 24.9678C66.1122 24.9486 66.117 24.9213 66.1125 24.886L66.1327 24.8389C66.1667 24.7966 66.1756 24.7321 66.1596 24.6455L66.1933 24.4858C66.2093 24.4679 66.2138 24.4409 66.2067 24.405C66.2048 24.3698 66.2135 24.3489 66.2327 24.3425L66.2596 23.9519L66.2933 23.2429C66.3067 23.1974 66.308 23.1519 66.2971 23.1063L66.2529 22.5224C66.2734 22.3871 66.266 22.2758 66.2308 22.1886L66.1586 21.8961C66.1766 21.7826 66.1667 21.7178 66.1288 21.7018L66.0663 21.5123C66.0811 21.4148 66.0612 21.3372 66.0067 21.2795C65.9779 21.2314 65.9625 21.1807 65.9606 21.1275C65.9785 21.1005 65.9708 21.0842 65.9375 21.0784L65.8769 20.9351C65.8833 20.8395 65.8689 20.7917 65.8336 20.7917L65.675 20.4541C65.6897 20.4015 65.6788 20.3745 65.6423 20.3733L65.1058 19.4757C65.1013 19.4109 65.0843 19.3936 65.0548 19.4238L64.6327 18.912C64.6244 18.8754 64.6096 18.8607 64.5885 18.8677L64.0029 18.3415C64.0106 18.3101 63.9904 18.295 63.9423 18.2963C63.5583 18.0058 63.1481 17.7621 62.7115 17.5652C62.7064 17.5196 62.6885 17.511 62.6577 17.5392C62.5897 17.5244 62.5279 17.5001 62.4721 17.4661C62.4869 17.4327 62.4609 17.4241 62.3942 17.4401C62.0154 17.3237 61.3904 17.1467 61.2231 16.8071C61.2288 16.7545 61.2026 16.717 61.1442 16.6945C61.4795 16.3283 61.8199 15.9653 62.1654 15.6056C62.8346 14.9091 63.3564 14.1225 63.7308 13.2458C63.7532 13.2297 63.7619 13.2057 63.7567 13.1736C63.7676 13.105 63.7894 13.0485 63.8221 13.0043C63.849 12.9851 63.8593 12.9533 63.8529 12.9091C63.8625 12.8334 63.884 12.7689 63.9173 12.7157C63.9494 12.6868 63.9599 12.6391 63.949 12.5724C63.9535 12.5332 63.9647 12.4964 63.9827 12.4617C63.9968 12.4425 64.0016 12.4152 63.9971 12.3799L64.0173 12.3318C64.0526 12.2998 64.0609 12.2517 64.0423 12.1875L64.0779 11.9798C64.0939 11.9612 64.0984 11.9329 64.0913 11.8951C64.0869 11.8361 64.0984 11.7893 64.126 11.7546L64.1413 11.3756L64.1423 10.6397L64.1221 10.1712L64.0423 9.72674C64.0571 9.63438 64.0484 9.58596 64.0163 9.58147L63.9452 9.2948C63.9625 9.19282 63.951 9.14472 63.9106 9.1505C63.475 7.568 62.376 6.39242 60.8788 5.73441C60.8788 5.70748 60.8647 5.69754 60.8365 5.70459C60.2295 5.43651 59.6048 5.22006 58.9625 5.05524C58.9593 5.02189 58.9253 5.01419 58.8606 5.03215L57.9529 4.86091C57.9106 4.80896 57.876 4.80255 57.849 4.84167C56.1535 4.63131 54.4718 4.72719 52.8039 5.12931ZM95.7798 5.7094L95.3615 5.71517L93.2855 5.79694L92.9548 5.80752L90.7846 5.8941L90.2567 5.90372L88.4221 5.9778C88.3867 5.97905 88.3532 5.99399 88.3286 6.01947C88.3041 6.04496 88.2903 6.07899 88.2904 6.1144L88.3125 26.5426L88.3279 28.2492L88.4202 30.7398C88.4208 30.7467 88.4187 30.7538 88.4144 30.76C88.4125 30.7632 88.4102 30.7661 88.4077 30.7687L88.4259 31.4113C88.4567 31.7865 88.6336 31.9709 88.9567 31.9645C89.0016 32.0036 89.0535 32.0078 89.1125 31.977L91.4307 31.9202C92.1647 31.9305 92.8984 31.9199 93.6317 31.8885C93.6362 31.8885 93.6397 31.8882 93.6423 31.8875C93.6429 31.8871 93.643 31.8865 93.6427 31.8859C93.6423 31.8852 93.6414 31.8845 93.6402 31.8839C93.6389 31.8833 93.6374 31.8828 93.6357 31.8824C93.634 31.882 93.6323 31.8818 93.6307 31.8817C93.5718 31.8798 93.5125 31.8795 93.4529 31.8808L93.7894 31.8663C93.8926 31.8811 93.9974 31.8785 94.1038 31.8586L95.749 31.8192C96.0471 31.834 96.3452 31.832 96.6432 31.8134C96.6426 31.8134 96.6423 31.8131 96.6423 31.8125C96.642 31.8122 96.6415 31.8119 96.6411 31.8118C96.6406 31.8116 96.64 31.8115 96.6394 31.8115L96.5365 31.8057L96.849 31.7923L97.3086 31.7827L98.9134 31.722L99.5279 31.7163C99.5286 31.7164 99.5294 31.7162 99.53 31.7158C99.5307 31.7153 99.5311 31.7146 99.5312 31.7139C99.5313 31.7131 99.5312 31.7123 99.5307 31.7117C99.5303 31.7111 99.5296 31.7106 99.5288 31.7105C99.4955 31.7015 99.4596 31.6993 99.4211 31.7038L99.7259 31.6951C99.808 31.7131 99.8862 31.7092 99.9605 31.6836L100.719 31.6374C100.805 31.64 100.853 31.6242 100.862 31.5903C100.963 31.5146 101.009 31.3946 100.998 31.2305C101.017 31.2112 101.023 31.1808 101.014 31.1391L100.97 29.8211L100.95 27.9568C100.942 27.9465 100.939 27.933 100.941 27.9163C100.981 27.9135 100.979 27.8625 100.94 27.8606V27.8201C100.982 27.8182 100.979 27.7644 100.939 27.7644V27.7239C100.982 27.722 100.979 27.6662 100.936 27.6681L100.917 27.3795C100.925 27.3456 100.923 27.3148 100.912 27.2872C100.857 27.0377 100.687 26.92 100.404 26.9341C100.16 26.9463 99.9173 26.9572 99.675 26.9668L99.2509 26.9755L96.9875 27.0611H93.7288C93.4077 27.0842 92.9307 27.0919 92.8769 26.71C92.9032 26.66 92.8993 26.6266 92.8654 26.6099V26.5695C92.9048 26.5657 92.9009 26.5128 92.8615 26.5137L92.8644 26.4733C92.9038 26.4705 92.9009 26.4175 92.8625 26.4175L92.8634 26.3771C92.9038 26.3752 92.9019 26.3213 92.8625 26.3213L92.8634 26.2809C92.9048 26.279 92.9019 26.2242 92.8615 26.2251L92.8634 26.1847C92.9048 26.1828 92.9019 26.128 92.8615 26.1289L92.8634 26.0885C92.9038 26.0856 92.9019 26.0327 92.8625 26.0327L92.8644 25.9923C92.9038 25.9894 92.9019 25.9375 92.8634 25.9365L92.8644 25.8961C92.9038 25.8932 92.9019 25.8413 92.8644 25.8403V25.7999C92.9029 25.797 92.9019 25.748 92.8654 25.7441V25.7037C92.8827 25.7025 92.891 25.6932 92.8904 25.6758C92.8904 25.6643 92.882 25.655 92.8654 25.6479C92.8621 25.6249 92.866 25.6104 92.8769 25.6046L92.8817 20.8995C92.8888 20.6609 92.9897 20.5067 93.1846 20.4368C93.225 20.4598 93.2583 20.4509 93.2846 20.4098C93.3628 20.3771 93.4458 20.3659 93.5336 20.3761L94.3952 20.3405C94.4362 20.3162 94.4907 20.3098 94.5586 20.3213C94.6272 20.3502 94.6862 20.3482 94.7355 20.3155L95.2759 20.279L96.1327 20.2482C96.1336 20.2485 96.1345 20.2484 96.1351 20.2479C96.1358 20.2475 96.1361 20.2467 96.1361 20.2458C96.1361 20.2449 96.1358 20.244 96.1351 20.2431C96.1345 20.2423 96.1336 20.2417 96.1327 20.2415C96.1 20.2363 96.0638 20.2357 96.024 20.2395C96.074 20.2229 96.1304 20.2181 96.1932 20.2251C96.2362 20.2379 96.2788 20.236 96.3211 20.2193L96.8086 20.1857L97.7644 20.1231C97.983 20.1238 98.1516 20.0564 98.2702 19.9211L98.2577 17.5806L98.225 16.7927L98.2211 16.3761L98.1865 15.9692C98.1858 15.9618 98.1823 15.9549 98.1768 15.9499C98.1713 15.945 98.1641 15.9422 98.1567 15.9423C96.5214 15.9391 94.9855 15.9503 93.549 15.9759C93.1682 15.9836 92.8404 15.9172 92.8307 15.5026C92.8147 14.7946 92.8025 14.0865 92.7942 13.3785V12.48L92.7952 12.4165L92.7971 12L92.8509 10.6012C92.8894 10.5858 92.9016 10.5534 92.8875 10.504C92.9144 10.3719 92.9817 10.2898 93.0894 10.2578C93.1317 10.2629 93.1654 10.2481 93.1904 10.2135C93.2263 10.193 93.267 10.1808 93.3125 10.177C93.3971 10.1949 93.4791 10.1885 93.5586 10.1577L94.9788 10.0788L95.7423 10.0423L96.7115 9.98263C97.0147 9.98712 97.3176 9.97974 97.6202 9.9605C97.6218 9.96045 97.6235 9.96009 97.6252 9.95945C97.6269 9.95882 97.6286 9.95792 97.6302 9.95681C97.6317 9.95569 97.6331 9.95439 97.6343 9.95297C97.6354 9.95154 97.6363 9.95003 97.6369 9.94851C97.6374 9.947 97.6377 9.94551 97.6376 9.94413C97.6375 9.94275 97.637 9.94151 97.6363 9.94048C97.6355 9.93945 97.6345 9.93865 97.6332 9.93812C97.6319 9.9376 97.6304 9.93736 97.6288 9.93742C97.6134 9.93678 97.5936 9.93902 97.5692 9.94415C97.6205 9.93132 97.6746 9.9278 97.7317 9.93357C97.7702 9.94447 97.8105 9.94223 97.8528 9.92683L98.9163 9.88354C99.0035 9.90791 99.0849 9.90503 99.1605 9.87489L99.9711 9.83352C100.04 9.85853 100.088 9.85597 100.115 9.82582C100.425 9.7867 100.568 9.60264 100.545 9.27363C100.517 8.85997 100.497 8.44695 100.486 8.03457L100.466 7.27939L100.389 5.78251C100.399 5.7575 100.389 5.72191 100.36 5.67573C100.287 5.56798 100.142 5.5186 99.923 5.52758C98.541 5.58466 97.1599 5.64527 95.7798 5.7094ZM37.6135 5.69689C37.5641 5.69753 37.5343 5.70363 37.5241 5.71517L36.9202 5.87102C36.8644 5.86589 36.8141 5.87903 36.7693 5.91046C35.7103 6.26897 34.7314 6.78717 33.8327 7.46506C33.3846 7.80305 33.0237 8.13013 32.75 8.44631C31.5231 9.86142 30.7337 11.6883 30.1914 13.5767C30.1247 13.5857 30.1071 13.637 30.1385 13.7306L30.0721 13.9711C30.0311 13.973 30.0189 14.0198 30.0356 14.1116C30.0266 14.1956 30.0026 14.2729 29.9635 14.3434C29.9276 14.3626 29.9189 14.414 29.9375 14.4973C29.9375 14.5493 29.9263 14.5955 29.9039 14.6359C29.875 14.657 29.8651 14.6881 29.8741 14.7292C29.8343 14.758 29.8247 14.809 29.8452 14.8821C29.8484 14.9334 29.8391 14.9806 29.8173 15.0235C29.7712 15.0607 29.7641 15.0941 29.7962 15.1236C29.7943 15.1383 29.7888 15.1508 29.7798 15.1611C29.7363 15.1945 29.7247 15.2618 29.7452 15.3631L29.6779 15.6912C29.6414 15.6957 29.6334 15.7377 29.6539 15.8172L29.5846 16.2203C29.5417 16.2536 29.5363 16.2966 29.5683 16.3492L29.4885 16.8629C29.4411 16.9341 29.4334 17.0357 29.4654 17.1679L29.3885 17.8124C29.3404 17.9682 29.3343 18.1286 29.3702 18.2934C29.3209 19.2105 29.3241 20.1302 29.3798 21.0524C29.3504 21.1589 29.3558 21.2779 29.3962 21.4093L29.4779 22.1385C29.46 22.2059 29.4632 22.2828 29.4875 22.3694L29.5673 22.9053C29.5539 22.9546 29.5603 23.0031 29.5866 23.0505L29.6625 23.5392C29.6625 23.57 29.6673 23.5995 29.677 23.6277L29.6943 23.6758C29.6872 23.7226 29.6898 23.7605 29.702 23.7893C29.7404 23.8836 29.759 23.9843 29.7577 24.0914C29.743 24.1382 29.7491 24.187 29.776 24.2376C29.8215 24.3236 29.8478 24.4275 29.8548 24.5493C29.8529 24.5827 29.8584 24.6122 29.8712 24.6378L29.951 24.9813C29.9414 25.0339 29.9481 25.0659 29.9712 25.0775L30.0481 25.3911C30.0462 25.4187 30.0523 25.4408 30.0664 25.4575L30.1452 25.7759C30.142 25.808 30.1488 25.831 30.1654 25.8451L30.6298 27.2131C30.6279 27.2773 30.6334 27.2946 30.6462 27.2651L30.9096 27.8846C30.8872 27.9494 30.8987 27.968 30.9443 27.9404L31.1193 28.2944C31.0917 28.2957 31.0846 28.3047 31.0981 28.3214C31.1154 28.3419 31.1286 28.3409 31.1375 28.3185C31.9132 29.8205 32.9978 31.0381 34.3914 31.9712C34.417 32.0456 34.434 32.0562 34.4423 32.0029L35.2654 32.4455C35.2686 32.4654 35.2894 32.4763 35.3279 32.4782C35.3798 32.4878 35.4199 32.5077 35.4481 32.5378C35.4609 32.5616 35.4872 32.5709 35.527 32.5657C35.6122 32.5824 35.6824 32.6122 35.7375 32.6552C35.7414 32.6924 35.7811 32.7046 35.8568 32.6917C35.9132 32.7026 35.9619 32.7193 36.0029 32.7418C36.0555 32.7745 36.1116 32.7934 36.1712 32.7985C36.2154 32.7998 36.2574 32.8133 36.2971 32.8389C36.3151 32.855 36.3391 32.8604 36.3693 32.8553L36.6991 32.9322C36.6728 32.9528 36.6994 32.9579 36.7789 32.9476L37.5635 33.0602C37.6737 33.0948 37.7888 33.0974 37.9087 33.0679L38.3318 33.0689C38.3882 33.0951 38.4398 33.0945 38.4866 33.0669C38.4994 33.0644 38.5128 33.066 38.5269 33.0717L39.0029 33.0188L39.3991 32.9496C39.4946 32.9669 39.5564 32.9569 39.5846 32.9197L39.7337 32.8793C39.8382 32.8915 39.9109 32.8761 39.9519 32.8332C40.8353 32.6023 41.6471 32.2104 42.3875 31.6576C42.4471 31.6762 42.476 31.655 42.4741 31.5941L42.9683 31.1814C43.0119 31.182 43.0378 31.1586 43.0462 31.1112L43.2164 30.9457C43.2805 30.9188 43.3199 30.8768 43.3346 30.8197L44.026 30.0366C44.0766 30.0475 44.1029 30.0122 44.1048 29.9308C44.6279 29.2426 45.0718 28.5048 45.4366 27.7172C45.475 27.7249 45.4914 27.7021 45.4856 27.6489C45.4933 27.5899 45.5176 27.5351 45.5587 27.4844C45.5952 27.4741 45.6039 27.4479 45.5846 27.4055L45.9462 26.5157C45.966 26.5022 45.9737 26.4721 45.9692 26.4252C45.9872 26.3617 46.0132 26.305 46.0471 26.255C46.0625 26.2389 46.0686 26.2155 46.0654 26.1847L46.1346 25.9923C46.1584 25.9776 46.1673 25.9455 46.1616 25.8961C46.1744 25.8262 46.1968 25.7621 46.2289 25.7037C46.2571 25.6774 46.2654 25.6428 46.2539 25.5998L46.3269 25.367C46.3519 25.351 46.36 25.3189 46.351 25.2708L46.4116 25.0707C46.45 25.0579 46.4622 25.0124 46.4481 24.9341C46.4526 24.8431 46.476 24.7629 46.5183 24.6936C46.5465 24.6686 46.5558 24.618 46.5462 24.5416L46.6039 24.2492C46.6442 24.2113 46.6564 24.1337 46.6404 24.0164L46.7087 23.6845C46.7439 23.6454 46.7526 23.5809 46.7346 23.4911L46.801 23.1554C46.8375 23.1201 46.8478 23.0557 46.8317 22.962C46.8375 22.8434 46.8612 22.7311 46.9029 22.6253C46.9337 22.5875 46.942 22.5233 46.9279 22.4329L46.9942 22.0423C47.0301 21.9955 47.0404 21.9157 47.025 21.8028L47.0587 21.6046C47.0747 21.5828 47.0789 21.5543 47.0712 21.519C47.068 21.4658 47.0766 21.418 47.0971 21.3757C47.1292 21.3141 47.1369 21.2336 47.1202 21.1342L47.1577 20.7417C47.1712 20.7161 47.1744 20.6866 47.1673 20.6532L47.1923 20.405C47.1994 20.4031 47.2051 20.4012 47.2096 20.3992C47.2125 20.3979 47.215 20.3959 47.2169 20.3933C47.2188 20.3908 47.2201 20.3878 47.2206 20.3847C47.221 20.3815 47.2207 20.3783 47.2197 20.3753C47.2186 20.3723 47.2168 20.3696 47.2144 20.3675C47.21 20.3636 47.2029 20.3601 47.1933 20.3569C47.192 20.3396 47.1939 20.3242 47.1991 20.3107C47.2234 20.212 47.2295 20.1017 47.2173 19.9798L47.2481 19.5142C47.2667 19.5309 47.2721 19.552 47.2644 19.5777V19.5786C47.2696 19.4555 47.2689 19.3327 47.2625 19.2102L47.2817 18.6811C47.3289 18.6801 47.325 18.6253 47.2866 18.6253L47.2904 18.582C47.2962 18.5814 47.301 18.5801 47.3048 18.5782C47.3079 18.5765 47.3105 18.5733 47.3122 18.5688C47.3139 18.5644 47.3147 18.5589 47.3144 18.5531L47.2952 17.087L47.2164 16.0683L47.1962 15.6479L47.1202 15.1621C47.1375 15.0287 47.1289 14.918 47.0942 14.8302C47.0814 14.8193 47.0731 14.8016 47.0692 14.7773C47.0789 14.7388 47.0779 14.7093 47.0664 14.6888C47.0433 14.6298 47.0298 14.5653 47.026 14.4954C47.042 14.3671 47.0317 14.2732 46.9952 14.2135L46.9241 13.9115C46.9426 13.8159 46.934 13.7681 46.8981 13.7681C46.8564 13.6604 46.8324 13.5478 46.826 13.4305C46.842 13.3862 46.8356 13.3541 46.8067 13.3343L46.7317 13.0457C46.7465 12.9944 46.7369 12.9623 46.7029 12.9495L46.5423 12.3732C46.5577 12.2757 46.5481 12.227 46.5135 12.227L46.4452 12.0356C46.4593 11.9663 46.4494 11.9345 46.4154 11.9403L46.25 11.4593C46.2692 11.417 46.2583 11.3868 46.2173 11.3689L45.8673 10.4492C45.8814 10.3966 45.8696 10.3655 45.8317 10.3559L45.5894 9.82198C45.592 9.76105 45.5805 9.7293 45.5548 9.72674L45.4827 9.58532C45.4987 9.5539 45.4875 9.5385 45.4491 9.53915C44.6741 7.94222 43.3712 6.95712 41.7731 6.226C40.4417 5.61673 39.0552 5.44036 37.6135 5.69689ZM104.056 29.0034C104.06 29.0033 104.064 29.0022 104.068 29.0001C104.071 28.9981 104.074 28.9951 104.076 28.9916C104.079 28.9881 104.08 28.9841 104.08 28.9799C104.08 28.9757 104.08 28.9716 104.078 28.9678C103.863 28.5022 103.636 27.9356 103.396 27.268C103.176 26.6552 102.946 26.1703 103.597 25.8654C103.999 25.6781 105.468 24.9912 108.004 23.8047C108.497 23.5739 108.72 23.9769 108.879 24.3483C109.296 25.3228 109.559 25.9269 110.191 26.5128C110.429 26.7331 110.679 26.7619 110.982 26.7177C111.345 26.6648 111.668 26.7273 111.925 27.0015C112.149 27.242 112.322 27.3228 112.613 27.2833C113.789 27.1211 114.569 26.5089 114.953 25.4469C115.064 25.1381 115.135 24.6869 115.076 24.3473C115.032 24.0904 114.721 23.9452 114.518 23.8432C113.555 23.3609 112.674 22.8956 111.876 22.4473C111.273 22.1094 110.716 21.7448 110.205 21.3535C109.527 20.8341 108.891 20.1863 108.299 19.4103C107.909 18.8998 107.593 18.5509 107.35 18.3636C106.959 18.0622 106.601 17.756 106.276 17.4449C105.199 16.4156 104.541 15.1656 104.301 13.695C104.299 13.6809 104.291 13.6683 104.279 13.6599C104.267 13.6514 104.253 13.6478 104.238 13.6498C103.341 13.7838 102.463 13.8669 101.606 13.899C99.2839 13.9875 97.8413 14.0461 97.2778 14.075C96.975 14.0914 96.6144 14.1385 96.6202 14.5233C96.6234 14.6997 96.6339 14.8722 96.6519 15.0409C96.6535 15.0546 96.6599 15.0674 96.6701 15.0769C96.6803 15.0864 96.6936 15.092 96.7077 15.0928C97.291 15.1249 97.849 15.1598 98.3817 15.1977C98.7727 15.2252 98.9775 15.4292 98.9961 15.8095C99.0314 16.5336 99.0391 17.2397 99.0192 17.9278C99.0191 17.9334 99.0201 17.939 99.0222 17.9442C99.0243 17.9494 99.0275 17.9541 99.0316 17.9581C99.0356 17.962 99.0404 17.9651 99.0457 17.9672C99.0511 17.9693 99.0567 17.9703 99.0625 17.9702C99.774 17.9541 100.383 17.9535 100.89 17.9682C101.689 17.9913 102.1 18.3861 102.123 19.1525C102.137 19.6206 102.113 20.9133 102.05 23.0303C102.041 23.3234 101.989 23.5495 101.895 23.7085C101.732 23.9866 101.337 24.027 101.03 24.05C99.9137 24.1321 98.6711 24.2296 97.3019 24.3425C97.0942 24.3598 96.9234 24.4249 96.7894 24.5378C96.7538 24.5676 96.7253 24.6048 96.7057 24.6469C96.6861 24.6889 96.6759 24.7348 96.6759 24.7812V26.153C96.6759 26.1721 96.6835 26.1905 96.697 26.204C96.7106 26.2175 96.7289 26.2251 96.748 26.2251C97.9051 26.2162 99.2682 26.194 100.837 26.1588C101.405 26.1459 101.694 26.4246 101.702 26.9947C101.706 27.2635 101.737 27.9215 101.795 28.9688C101.796 28.9781 101.8 28.987 101.807 28.9934C101.813 28.9998 101.822 29.0034 101.832 29.0034H104.056Z" fill="white"/>
<path d="M76.5836 8.76473C76.6247 8.8077 76.6817 8.81892 76.7548 8.7984C76.8381 8.80673 76.9154 8.82918 76.9865 8.86574C77.0211 8.9055 77.0564 8.91544 77.0923 8.89556L77.2423 8.95713C77.2436 8.99368 77.2731 9.00651 77.3308 8.99561L77.4269 9.03313C77.4384 9.08507 77.4766 9.10848 77.5413 9.10335C77.5702 9.11426 77.5936 9.12965 77.6115 9.14953C77.6551 9.21302 77.7025 9.24316 77.7538 9.23996C77.9801 9.3849 78.1606 9.56319 78.2952 9.77483C78.3266 9.89797 78.3849 10.0009 78.4702 10.0836C78.4997 10.0952 78.5202 10.1285 78.5317 10.1837C78.5054 10.2164 78.5176 10.2411 78.5683 10.2578L78.6106 10.3799C78.6086 10.4075 78.6122 10.4303 78.6211 10.4482C78.6096 10.5188 78.6247 10.5694 78.6663 10.6002C78.6849 10.6374 78.6929 10.6743 78.6904 10.7109C78.675 10.757 78.6846 10.8003 78.7192 10.8407C78.7442 10.8824 78.7513 10.9305 78.7404 10.985C78.7317 11.0428 78.7298 11.1024 78.7336 11.162C78.7346 11.1216 78.7327 11.087 78.7471 11.0466C78.7676 11.1511 78.7683 11.2579 78.749 11.367C78.7458 11.3233 78.742 11.2807 78.7375 11.239C78.7375 11.2388 78.7374 11.2385 78.7372 11.2383C78.737 11.2381 78.7368 11.238 78.7365 11.238L78.7356 11.239C78.7343 11.2403 78.7333 11.2419 78.7327 11.2438L78.7231 11.6046C78.7384 11.602 78.7352 11.6174 78.7134 11.6507C78.6846 11.6693 78.6775 11.7021 78.6923 11.7489C78.6968 11.8316 78.683 11.9009 78.6509 11.9567C78.5945 12.0086 78.5756 12.0859 78.5942 12.1885C78.5923 12.2071 78.5872 12.2212 78.5788 12.2308C78.5102 12.2963 78.4859 12.3613 78.5058 12.4261C78.4891 12.5281 78.4477 12.6237 78.3817 12.7128C78.317 12.7667 78.2705 12.8459 78.2423 12.9504C78.1641 13.0139 78.1231 13.0816 78.1192 13.1534C78.1167 13.1656 78.1086 13.1784 78.0952 13.1919C78.0439 13.1848 78.0131 13.2326 78.0029 13.3352C77.9888 13.357 77.9737 13.3718 77.9577 13.3795C77.8487 13.459 77.7644 13.5546 77.7048 13.6661L77.274 14.0865L76.9961 14.2982C76.9115 14.3149 76.8679 14.3495 76.8654 14.4021C76.8378 14.4277 76.8006 14.4476 76.7538 14.4617C76.6833 14.4418 76.6538 14.4508 76.6654 14.4887C76.6352 14.5143 76.5984 14.5329 76.5548 14.5445C76.5253 14.5361 76.4981 14.539 76.4731 14.5531C76.4583 14.5608 76.4551 14.573 76.4634 14.5897C76.4186 14.6211 76.3718 14.6426 76.3231 14.6541C76.2134 14.6259 76.1856 14.6397 76.2394 14.6955L75.6481 14.9466C75.6301 14.9209 75.6054 14.9139 75.574 14.9254C75.5433 14.937 75.5224 14.9626 75.5115 15.0024L75.4481 15.037C75.3885 15.021 75.3564 15.0322 75.3519 15.0707C75.3167 15.0963 75.2766 15.112 75.2317 15.1178C75.1542 15.1063 75.1176 15.1213 75.1221 15.163C75.0753 15.1938 75.0237 15.2166 74.9673 15.2313C74.9051 15.2121 74.8756 15.2236 74.8788 15.266C74.8352 15.2993 74.7875 15.3198 74.7356 15.3275C74.6529 15.307 74.6263 15.3182 74.6558 15.3612L74.4865 15.4266C74.4179 15.4061 74.3859 15.4154 74.3904 15.4545C74.0635 15.5449 73.8663 15.4317 73.799 15.1149C73.8157 15.0546 73.8077 15.0251 73.775 15.0264L73.7298 14.5906C73.7731 14.5839 73.7634 14.5348 73.7259 14.5368L73.7019 14.2953C73.7282 14.1574 73.7215 14.0362 73.6817 13.9317C73.6663 12.447 73.6519 10.9543 73.6385 9.45352C73.6378 9.39837 73.65 9.32942 73.675 9.24669C73.7256 9.2313 73.7397 9.19859 73.7173 9.14857C73.7429 9.07674 73.7901 9.02383 73.8586 8.98984C73.8913 9.0033 73.9179 8.98695 73.9385 8.94077C74.0122 8.92923 74.0429 8.91063 74.0308 8.88498C74.0891 8.85355 74.1548 8.83463 74.2279 8.82822C74.2458 8.85195 74.2795 8.84906 74.3288 8.81956C74.3346 8.80481 74.3551 8.79711 74.3904 8.79647C74.4154 8.80802 74.434 8.8109 74.4461 8.80513C74.4476 8.80435 74.4488 8.80322 74.4497 8.80183C74.4506 8.80045 74.4511 8.79886 74.4512 8.79722C74.4513 8.79558 74.451 8.79395 74.4502 8.79247C74.4495 8.79099 74.4484 8.78972 74.4471 8.78878C74.4381 8.783 74.4272 8.78204 74.4144 8.78589L74.9702 8.70123L76.0029 8.67911L76.5836 8.76473Z" fill="white"/>
<path d="M57.6857 8.76185C57.7165 8.80866 57.7748 8.82053 57.8607 8.79744L58.1146 8.85997C58.1011 8.89909 58.1447 8.9116 58.2453 8.89749L58.4367 8.95906C58.4296 8.99369 58.4591 9.00652 58.5252 8.99754C58.5732 9.01101 58.611 9.02832 58.6386 9.04949C58.7213 9.13991 58.7989 9.18545 58.8713 9.18609C58.8937 9.18994 58.9191 9.20212 58.9473 9.22265C58.9909 9.29897 59.0421 9.33777 59.1011 9.33905C59.128 9.35572 59.1437 9.37272 59.1482 9.39004C59.2245 9.50997 59.3226 9.60617 59.4425 9.67864C59.4771 9.77356 59.5393 9.85629 59.629 9.92684C59.6969 10.0096 59.7457 10.1013 59.7752 10.202C59.7232 10.2257 59.7393 10.2613 59.8232 10.3088C59.838 10.3293 59.8489 10.3543 59.8559 10.3838C59.8553 10.4101 59.8604 10.4306 59.8713 10.4454C59.8598 10.5172 59.8745 10.5688 59.9155 10.6002L59.9588 10.7619C59.9562 10.7875 59.9591 10.8112 59.9675 10.833C59.9925 10.8779 59.9995 10.9257 59.9886 10.9764L59.98 11.696C59.9857 11.7146 59.9835 11.7332 59.9732 11.7518C59.9303 11.7691 59.9213 11.8185 59.9463 11.8999C59.9444 11.9371 59.9344 11.9666 59.9165 11.9884C59.8575 12.0602 59.8495 12.1112 59.8925 12.1414L59.8088 12.378C59.7434 12.4332 59.7261 12.48 59.7569 12.5185C59.7537 12.539 59.7463 12.5576 59.7348 12.5743C59.6655 12.6384 59.6392 12.7019 59.6559 12.7648C59.6534 12.784 59.6463 12.7984 59.6348 12.808C59.5354 12.8998 59.471 13.0123 59.4415 13.1457C59.3812 13.1784 59.3537 13.2259 59.3588 13.2881C59.3357 13.3439 59.3005 13.392 59.253 13.4324C59.1646 13.4965 59.0985 13.5751 59.055 13.6681C58.88 13.788 58.7271 13.9346 58.5963 14.1077C58.5457 14.1642 58.4854 14.2087 58.4155 14.2414C58.3604 14.2203 58.2998 14.262 58.2338 14.3665C58.1915 14.4018 58.145 14.4268 58.0944 14.4415C58.0284 14.439 58.0001 14.455 58.0098 14.4896C57.9867 14.5166 57.9588 14.5316 57.9261 14.5348C57.8569 14.5323 57.8344 14.5522 57.8588 14.5945L57.5636 14.7532C57.5303 14.7385 57.5034 14.7365 57.4828 14.7474C57.4707 14.7539 57.4659 14.7628 57.4684 14.7744C57.471 14.7846 57.4796 14.7898 57.4944 14.7898L57.1877 14.9427C57.0851 14.9209 57.0575 14.9347 57.105 14.9841L56.9867 15.037C56.9534 15.0197 56.9236 15.0184 56.8973 15.0332C56.8812 15.0421 56.879 15.055 56.8905 15.0716C56.8559 15.0973 56.8162 15.1137 56.7713 15.1207C56.7431 15.1104 56.72 15.1111 56.7021 15.1226C56.6899 15.1303 56.6832 15.1438 56.6819 15.163L56.2723 15.3314C56.2518 15.3186 56.2309 15.3166 56.2098 15.3256C56.1912 15.3333 56.1857 15.3465 56.1934 15.3651L56.0252 15.4228C55.9764 15.4106 55.9444 15.4196 55.929 15.4497L55.5819 15.543C55.5812 15.4917 55.5351 15.492 55.4434 15.544C55.179 15.5382 55.0838 15.19 55.0521 14.9687C55.0687 14.8725 55.0569 14.8263 55.0165 14.8302L54.9569 12.8398L54.9396 10.8379L54.9319 9.25151C54.9716 9.26497 54.9857 9.23259 54.9742 9.15434C55.0024 9.14537 55.0149 9.12067 55.0117 9.08027C55.0771 8.98086 55.1719 8.91769 55.2963 8.89075C55.3425 8.91705 55.3771 8.90871 55.4002 8.86574L55.7367 8.79744C55.7989 8.81476 55.8636 8.80514 55.9309 8.76858L56.4146 8.71182L57.0848 8.69739L57.6857 8.76185Z" fill="white"/>
<path d="M39.2066 10.0144C39.2656 10.0503 39.3281 10.0628 39.3941 10.0519L39.5883 10.1019C39.6255 10.1481 39.6746 10.1641 39.7355 10.15C39.8015 10.1616 39.8525 10.1827 39.8884 10.2135C39.9986 10.2937 40.121 10.3543 40.2557 10.3953C40.3178 10.4146 40.3733 10.4466 40.422 10.4915C40.44 10.5634 40.481 10.5935 40.5451 10.582C40.6444 10.6346 40.7319 10.7013 40.8076 10.7821C40.8146 10.8282 40.8486 10.8622 40.9095 10.884L41.2778 11.3131C41.2739 11.3458 41.2797 11.3708 41.2951 11.3881C41.313 11.4074 41.3217 11.407 41.321 11.3872C41.3416 11.409 41.3579 11.434 41.3701 11.4622C41.3656 11.5719 41.3941 11.6219 41.4557 11.6123C41.5044 11.6681 41.5393 11.7287 41.5605 11.7941C41.5714 11.8903 41.597 11.9342 41.6374 11.9259L41.6701 11.9952C41.6541 12.0574 41.6787 12.1051 41.7441 12.1385L41.7672 12.1856C41.7576 12.2722 41.7784 12.3133 41.8297 12.3088L41.8557 12.3723C41.8608 12.4749 41.8855 12.5178 41.9297 12.5012L41.948 12.5704C41.947 12.5954 41.9547 12.6637 41.9989 12.6435L42.0441 12.7571C42.0351 12.8238 42.0505 12.8574 42.0903 12.8581L42.248 13.1967C42.2332 13.2454 42.2432 13.2724 42.2778 13.2775L42.4489 13.646C42.4201 13.6921 42.4416 13.7351 42.5133 13.7749C42.5486 13.8262 42.5666 13.8794 42.5672 13.9346C42.5448 13.9923 42.5582 14.033 42.6076 14.0567L42.6547 14.2068C42.6432 14.3024 42.6605 14.3678 42.7066 14.4031L42.8624 15.0659C42.8637 15.1493 42.8691 15.1746 42.8787 15.1419L42.9432 15.4584C42.9201 15.4795 42.9117 15.4978 42.9182 15.5132C42.9297 15.5421 42.9419 15.5459 42.9547 15.5248L43.0672 16.127C43.0467 16.1956 43.0547 16.2604 43.0912 16.3213L43.1345 16.5647C43.1287 16.6 43.13 16.6295 43.1383 16.6532C43.1557 16.6853 43.1624 16.7199 43.1585 16.7571C43.147 16.835 43.1528 16.9014 43.1566 16.9822C43.1595 16.9533 43.1633 16.9283 43.1758 16.9004L43.222 17.4767C43.2015 17.5594 43.2057 17.6489 43.2345 17.7451C43.2698 17.8034 43.2765 17.8708 43.2547 17.9471C43.2278 18.1209 43.2335 18.1667 43.272 18.0847C43.3124 19.0499 43.2714 20.0186 43.1489 20.9909C43.1053 21.0492 43.1002 21.0964 43.1335 21.1323L43.0778 21.4911C43.0553 21.4315 43.0512 21.4549 43.0653 21.5613L42.9489 22.2338C42.9098 22.2312 42.9079 22.2476 42.9432 22.2828C42.7508 23.2538 42.4848 24.2001 42.1451 25.1217C42.0867 25.1243 42.0682 25.1583 42.0893 25.2237C42.0797 25.2763 42.0608 25.3231 42.0326 25.3642C41.9903 25.3725 41.9784 25.4052 41.997 25.4623L41.848 25.7922C41.798 25.7999 41.7813 25.8323 41.798 25.8894C41.7877 25.9298 41.7701 25.9612 41.7451 25.9837C41.7002 25.9946 41.6803 26.036 41.6855 26.1078C41.656 26.1886 41.6143 26.262 41.5605 26.3281C41.4643 26.3794 41.446 26.4118 41.5057 26.4252L41.4172 26.5618C41.3121 26.6273 41.2666 26.6933 41.2807 26.76C41.2557 26.8165 41.221 26.8626 41.1768 26.8986C41.1166 26.9345 41.0906 26.9688 41.0989 27.0015C41.088 27.0438 41.0662 27.0736 41.0335 27.091C40.9348 27.1487 40.9098 27.1859 40.9585 27.2025L40.4951 27.6229C40.4387 27.6294 40.4169 27.6451 40.4297 27.6701C40.3989 27.7066 40.3595 27.7371 40.3114 27.7615C40.3432 27.7288 40.2739 27.7018 40.2566 27.7519C40.2515 27.7679 40.2595 27.7759 40.2807 27.7759L39.9778 27.9356C39.9249 27.8827 39.8595 27.9192 39.847 27.9856C39.8124 28.0094 39.7749 28.0238 39.7345 28.0289C39.7044 28.0077 39.6765 28.0068 39.6509 28.026C39.6374 28.0363 39.6387 28.0498 39.6547 28.0664C39.0887 28.2268 38.5134 28.2604 37.9287 28.1674C36.7775 27.9834 35.9175 27.3587 35.3489 26.2935C35.3694 26.2665 35.3576 26.2463 35.3134 26.2328L35.0682 25.7518C35.072 25.7082 35.0553 25.6771 35.0182 25.6585L34.5662 24.4474C34.5829 24.3999 34.5762 24.3698 34.546 24.3569L34.3845 23.7066C34.3826 23.6701 34.3816 23.6325 34.3816 23.595C34.3778 23.6014 34.3736 23.6075 34.3691 23.6133C34.3351 23.5485 34.3201 23.4735 34.3239 23.3882C34.3451 23.3241 34.338 23.2917 34.3028 23.291L34.2826 23.2429C34.2928 23.1891 34.29 23.1487 34.2739 23.1217L34.1884 22.6648C34.1903 22.607 34.1893 22.5484 34.1893 22.4887C34.1855 22.4945 34.1816 22.5003 34.1778 22.506L34.1278 22.1385C34.1547 22.0686 34.1489 22.0196 34.1105 21.9914C34.1002 21.9792 34.0935 21.9638 34.0903 21.9452C34.1044 21.822 34.0989 21.7111 34.0739 21.6123L34.0412 21.3189C34.0598 21.1862 34.0518 21.073 34.0172 20.9793C34.0012 20.9556 33.9928 20.9235 33.9922 20.8831L33.9778 20.4108C33.9335 19.6476 33.9345 18.887 33.9807 18.1289L33.9922 17.6748L34.073 16.8494L34.0768 16.9322C34.0774 16.9344 34.0786 16.9363 34.0804 16.9377C34.0821 16.9392 34.0843 16.94 34.0866 16.9401C34.0888 16.9402 34.091 16.9396 34.0929 16.9383C34.0948 16.9371 34.0962 16.9353 34.097 16.9331C34.1053 16.8735 34.1028 16.8138 34.0893 16.7542L34.171 16.2482C34.1922 16.3579 34.1989 16.3187 34.1912 16.1308L34.2585 15.7893C34.3162 15.7566 34.3246 15.7101 34.2835 15.6498L34.3614 15.2891C34.3986 15.3109 34.4089 15.2785 34.3922 15.1919L34.4432 14.9697C34.506 14.9241 34.5201 14.8764 34.4855 14.8263L34.5566 14.5445C34.5803 14.6048 34.5868 14.5884 34.5759 14.4954L34.6384 14.2982C34.6653 14.2943 34.6803 14.279 34.6835 14.252C34.6874 14.2264 34.6819 14.2091 34.6672 14.2001L34.7326 14.0106C34.7903 13.9881 34.8015 13.9544 34.7662 13.9095C34.7682 13.898 34.7752 13.8852 34.7874 13.8711C34.815 13.8666 34.8226 13.8502 34.8105 13.822C34.8092 13.7861 34.8169 13.7524 34.8335 13.721C34.8727 13.7127 34.8826 13.6825 34.8634 13.6306L34.9412 13.4074C34.9643 13.3939 34.972 13.3718 34.9643 13.341L35.2134 12.7638C35.2659 12.7523 35.2794 12.726 35.2537 12.6849L35.4085 12.3723C35.4476 12.3646 35.4614 12.3421 35.4499 12.3049C35.4595 12.2748 35.4749 12.2488 35.496 12.227C35.5537 12.1911 35.5707 12.1616 35.547 12.1385L35.921 11.5584C35.9717 11.5655 36.006 11.5257 36.0239 11.4391L36.2422 11.1755C36.2884 11.1665 36.3121 11.1403 36.3134 11.0966L36.847 10.6022C36.8509 10.6516 36.881 10.6339 36.9374 10.5493C37.0175 10.4659 37.114 10.3982 37.2268 10.3463C37.3025 10.3444 37.3287 10.3325 37.3057 10.3107C37.3384 10.2799 37.3787 10.2568 37.4268 10.2414C37.4781 10.251 37.5015 10.2424 37.497 10.2154C37.5425 10.1738 37.596 10.1497 37.6576 10.1433C37.6775 10.1491 37.696 10.1404 37.7134 10.1173L37.972 10.0365C38.0002 10.0397 38.0239 10.0352 38.0432 10.023C38.4342 9.91915 38.822 9.91626 39.2066 10.0144ZM38.6653 27.3747C38.7775 27.4158 38.8948 27.4212 39.0172 27.3911C39.9903 27.1525 40.6191 26.5224 41.0489 25.671C41.5553 24.6673 41.9201 23.5171 42.1432 22.2203C42.3143 21.2237 42.4198 20.339 42.4595 19.5661C42.5435 17.9429 42.3765 16.3094 41.9585 14.6657C41.8739 14.3309 41.8182 13.9673 41.4239 14.0365C41.3927 14.0423 41.3623 14.0523 41.3335 14.0664C40.673 14.3992 40.1624 14.6262 39.8297 15.0736C39.3117 15.7675 38.9194 16.5214 38.6528 17.3353C38.2156 18.6692 37.9646 19.991 37.8999 21.3006C37.8044 23.2285 37.9925 25.1278 38.4643 26.9986C38.5117 27.1884 38.5509 27.2968 38.5816 27.3238C38.6064 27.346 38.6348 27.3633 38.6653 27.3747Z" fill="white"/>
<path d="M75.2528 19.6777L76.6989 19.6691L77.1355 19.7201C77.2028 19.7675 77.2842 19.7826 77.3797 19.7653L77.6326 19.8288C77.6781 19.8679 77.738 19.8791 77.8124 19.8624L78.0182 19.9221C78.0066 19.9638 78.0505 19.9769 78.1499 19.9615L78.3124 20.0202C78.2842 20.0516 78.3098 20.0638 78.3893 20.0568C78.4053 20.0574 78.4207 20.0619 78.4355 20.0702C78.5047 20.1401 78.5778 20.1687 78.6547 20.1558L78.7662 20.2136C78.7733 20.2444 78.805 20.2597 78.8614 20.2597L78.9653 20.3107C79.0076 20.3736 79.0387 20.3899 79.0586 20.3598C79.1105 20.3675 79.1509 20.3915 79.1797 20.4319C79.265 20.5262 79.3666 20.5981 79.4845 20.6474C79.5236 20.6558 79.5454 20.6705 79.5499 20.6917C79.6018 20.7834 79.6771 20.8501 79.7759 20.8918C79.7951 20.8944 79.814 20.9085 79.8326 20.9341C79.8544 21.0329 79.9156 21.098 80.0162 21.1294C80.0239 21.1961 80.0499 21.2278 80.0941 21.2246L80.2316 21.417C80.2124 21.4754 80.2358 21.5094 80.3018 21.519L80.3259 21.5671C80.3118 21.6351 80.338 21.6832 80.4047 21.7114C80.4053 21.7589 80.421 21.7897 80.4518 21.8038C80.4505 21.8666 80.4653 21.8977 80.4961 21.8971C80.5262 21.9401 80.547 21.9875 80.5585 22.0395C80.5444 22.1215 80.5515 22.1462 80.5797 22.1135L80.647 22.3348C80.647 22.5214 80.6557 22.5599 80.673 22.4502L80.7364 22.8629C80.7134 22.9412 80.7114 22.9883 80.7307 23.0043L80.7345 23.0582C80.6993 23.1006 80.6977 23.1487 80.7297 23.2025L80.6749 23.6075C80.6018 23.6774 80.5871 23.7422 80.6307 23.8019C80.6275 23.857 80.6121 23.9131 80.5845 23.9702C80.5223 23.9882 80.5031 24.0359 80.5268 24.1135C80.5236 24.1648 80.5057 24.2113 80.473 24.253C80.4537 24.2594 80.438 24.2691 80.4259 24.2819C80.4244 24.2834 80.4233 24.2853 80.4226 24.2873C80.422 24.2894 80.4218 24.2915 80.4221 24.2936C80.4223 24.2958 80.4231 24.2978 80.4242 24.2996C80.4254 24.3014 80.4269 24.3029 80.4287 24.304C80.4358 24.3079 80.4441 24.3095 80.4537 24.3088L80.3095 24.5965C80.2185 24.66 80.2005 24.6927 80.2557 24.6946L80.1451 24.8649C80.0374 24.9412 80.0098 24.981 80.0624 24.9842C79.7477 25.4062 79.3746 25.7733 78.9432 26.0857C78.8816 26.1017 78.8634 26.1168 78.8884 26.1309C78.8255 26.1918 78.7534 26.2402 78.672 26.2761C78.588 26.2832 78.5656 26.2995 78.6047 26.3252L78.3316 26.4887C78.2662 26.4567 78.2182 26.4833 78.1874 26.5686C78.1143 26.5686 78.0839 26.5837 78.0961 26.6138C78.0685 26.6407 78.0377 26.6558 78.0037 26.659C77.8903 26.6859 77.7909 26.7347 77.7057 26.8052C77.6717 26.8328 77.6268 26.8553 77.5711 26.8726C77.5339 26.8482 77.5018 26.8444 77.4749 26.861C77.4544 26.8739 77.4547 26.8893 77.4759 26.9072L77.0922 27.0679C76.982 27.0429 76.9541 27.055 77.0086 27.1044L76.8057 27.1641C76.7778 27.1496 76.7182 27.1371 76.6989 27.1718C76.6925 27.1846 76.7002 27.1942 76.722 27.2006L76.5066 27.2574C76.4509 27.2349 76.4185 27.2442 76.4095 27.2853C76.3204 27.325 76.2297 27.3484 76.1374 27.3555C76.0239 27.3279 75.9938 27.3408 76.047 27.394L75.7884 27.4507C75.7108 27.4302 75.6323 27.4469 75.5528 27.5008L75.2566 27.5498C75.1694 27.5261 75.1371 27.5351 75.1595 27.5768L74.6249 27.6595C74.5749 27.6095 74.5275 27.6149 74.4826 27.6759L74.0384 27.6912C74.0244 27.6918 74.0103 27.6896 73.9971 27.6846C73.9839 27.6797 73.9718 27.6721 73.9614 27.6624C73.8608 27.5662 73.8227 27.4411 73.847 27.2872C73.8554 27.2256 73.8573 27.1628 73.8528 27.0986V27.0977C73.8457 27.1503 73.8396 27.2045 73.8345 27.2603L73.8114 26.2742C73.8544 26.2697 73.8553 26.254 73.8143 26.2271L73.7884 24.356C73.8127 24.3156 73.8159 24.2662 73.798 24.2078L73.7941 24.1568C73.8089 24.1132 73.8102 24.0664 73.798 24.0164C73.7807 23.9811 73.7842 23.9619 73.8086 23.9587L73.7951 23.2525C73.7816 23.2647 73.7762 23.2468 73.7787 23.1987C73.7896 23.2083 73.7983 23.2064 73.8047 23.1929C73.8137 23.1717 73.8037 23.156 73.7749 23.1458L73.7768 21.0784C73.798 21.0797 73.8079 21.0714 73.8066 21.0534C73.8065 21.0525 73.8063 21.0516 73.8058 21.0509C73.8053 21.0501 73.8047 21.0495 73.804 21.0491C73.8033 21.0487 73.8025 21.0485 73.8018 21.0486C73.8011 21.0487 73.8004 21.049 73.7999 21.0496L73.7787 21.0621L73.7778 20.5012C73.7925 20.5095 73.8018 20.5051 73.8057 20.4877C73.8062 20.4848 73.806 20.4817 73.805 20.4788C73.804 20.4759 73.8022 20.4734 73.7999 20.4714L73.7787 20.4531C73.7723 20.3941 73.7755 20.338 73.7884 20.2848C73.8037 20.3008 73.8092 20.322 73.8047 20.3483L73.8057 20.3492C73.8066 20.2934 73.8182 20.2501 73.8114 20.1953C73.8179 20.1478 73.8348 20.1042 73.8624 20.0645C73.9432 20.0337 73.9695 19.9997 73.9412 19.9625C74.0925 19.8374 74.2906 19.7723 74.5355 19.7672C74.6566 19.7858 74.7634 19.7714 74.8557 19.7239L75.2528 19.6777ZM77.7172 25.8846C78.6858 25.41 79.3832 24.7013 79.8095 23.7586C79.8131 23.7509 79.8147 23.7424 79.8141 23.7339C79.8135 23.7255 79.8108 23.7173 79.8062 23.7102C79.8015 23.703 79.7952 23.6972 79.7877 23.6932C79.7802 23.6892 79.7718 23.6872 79.7634 23.6874L77.9739 23.7114C77.965 23.7121 77.956 23.7137 77.947 23.7162C77.8727 23.7387 77.7928 23.8089 77.7076 23.9269C77.6945 23.945 77.6874 23.9669 77.6874 23.9894V25.8663C77.6873 25.8697 77.6882 25.8731 77.6898 25.8761C77.6915 25.8791 77.6939 25.8816 77.6969 25.8835C77.6999 25.8853 77.7033 25.8863 77.7068 25.8865C77.7104 25.8867 77.714 25.8861 77.7172 25.8846Z" fill="white"/>
<path d="M57.8595 19.722H57.948C57.9685 19.7194 57.9855 19.7213 57.9989 19.7278C58.1092 19.7682 58.2233 19.781 58.3413 19.7662L58.7259 19.8259C58.7816 19.8695 58.8461 19.8814 58.9191 19.8615L59.198 19.924C59.2281 19.9663 59.2791 19.9779 59.3509 19.9586L59.3961 19.974C59.4717 20.042 59.5528 20.0706 59.6393 20.0596C59.6919 20.0712 59.7393 20.0904 59.7816 20.1174C59.8034 20.1603 59.8586 20.1837 59.947 20.1876C59.9977 20.2549 60.0563 20.2803 60.123 20.2636C60.1929 20.2873 60.2147 20.305 60.1884 20.3165C60.2595 20.3794 60.3445 20.4239 60.4432 20.4502C60.4797 20.4592 60.5047 20.4756 60.5182 20.4993C60.5464 20.5711 60.6198 20.6189 60.7384 20.6426C60.7794 20.6651 60.8098 20.6898 60.8297 20.7167C60.9175 20.8482 61.0294 20.9546 61.1653 21.0361C61.2038 21.0534 61.24 21.0861 61.2739 21.1342C61.2759 21.1919 61.2906 21.2144 61.3182 21.2016C61.3842 21.2663 61.4374 21.3398 61.4778 21.4218C61.4701 21.4982 61.5127 21.5629 61.6057 21.6162C61.6288 21.6405 61.647 21.6717 61.6605 21.7095C61.6611 21.7788 61.6759 21.8105 61.7047 21.8047C61.7002 21.8669 61.714 21.8971 61.7461 21.8952C61.7788 21.9298 61.7961 21.9702 61.798 22.0164C61.7941 22.0561 61.8082 22.0827 61.8403 22.0962L61.8845 22.2165C61.873 22.2537 61.8746 22.2758 61.8893 22.2828C61.8977 22.3624 61.9076 22.3874 61.9191 22.3579L62.0095 22.6965C61.9993 22.7946 61.997 22.8934 62.0028 22.9928H62.0038L62.0163 22.8081L62.0182 23.4652C61.9605 23.5716 61.9438 23.6582 61.9682 23.7249C61.9727 23.7781 61.9643 23.8278 61.9432 23.874C61.8842 23.9029 61.8688 23.9599 61.897 24.0452C61.8868 24.1119 61.863 24.1725 61.8259 24.2271C61.7656 24.245 61.7489 24.2861 61.7759 24.3502L61.7528 24.4118C61.6868 24.449 61.6589 24.5115 61.6691 24.5994L61.5586 24.7908C61.497 24.8209 61.4679 24.8665 61.4711 24.9274C61.4576 24.9582 61.4406 24.9816 61.4201 24.9976C61.3784 24.9733 61.3602 24.9996 61.3653 25.0765C61.3544 25.0958 61.34 25.1115 61.322 25.1236C61.2387 25.1698 61.2134 25.2035 61.2461 25.2247C61.2185 25.2696 61.1884 25.3048 61.1557 25.3305C61.0877 25.3247 61.0464 25.3674 61.0316 25.4584C60.9669 25.5533 60.8864 25.6335 60.7903 25.6989C60.7858 25.6829 60.781 25.6742 60.7759 25.673C60.7738 25.6726 60.7716 25.6728 60.7695 25.6736C60.7675 25.6743 60.7658 25.6756 60.7645 25.6772C60.7632 25.6788 60.7624 25.6807 60.7622 25.6826C60.762 25.6846 60.7624 25.6866 60.7634 25.6883C60.7647 25.6922 60.7736 25.6957 60.7903 25.6989C60.7595 25.7387 60.7259 25.7698 60.6893 25.7922C60.6727 25.7409 60.6496 25.7608 60.6201 25.8519L59.9259 26.3743C59.8413 26.3768 59.8156 26.3922 59.8489 26.4204L59.4211 26.66C59.3525 26.6574 59.3259 26.6731 59.3413 26.7071L59.2989 26.7264C59.1964 26.7199 59.1457 26.7472 59.147 26.8081C59.1092 26.8351 59.065 26.8559 59.0143 26.8707C58.9323 26.8546 58.905 26.8668 58.9326 26.9072C58.8826 26.9399 58.8304 26.9614 58.7759 26.9717C58.7278 26.9264 58.6586 26.9678 58.6528 27.0275L58.2913 27.1631C58.2336 27.1413 58.2018 27.1516 58.1961 27.1939L57.6682 27.3565C57.5759 27.3302 57.5409 27.3398 57.5634 27.3853L57.3268 27.4498C57.2127 27.4286 57.1643 27.4414 57.1816 27.4883L56.2489 27.6662C56.2826 27.6229 56.2153 27.6239 56.2172 27.6672L55.273 27.7903C55.2554 27.7928 55.2376 27.7881 55.2234 27.7773C55.2091 27.7665 55.1997 27.7504 55.197 27.7326L55.1461 27.3796C55.1528 27.3036 55.1509 27.2304 55.1509 27.1544C55.1509 27.192 55.1509 27.2237 55.1374 27.2603L55.099 22.8023L55.0845 20.6445C55.0576 20.59 55.0554 20.5291 55.0778 20.4618C55.106 20.4361 55.114 20.3877 55.1018 20.3165C55.1025 20.2966 55.1066 20.2803 55.1143 20.2674C55.1746 20.2232 55.2057 20.1594 55.2076 20.076C55.2384 20.0253 55.2781 19.9923 55.3268 19.9769C55.3602 19.975 55.382 19.9599 55.3922 19.9317C55.4223 19.9009 55.4576 19.8855 55.498 19.8855C55.5877 19.8939 55.6384 19.8769 55.6499 19.8345L56.1201 19.7624C56.2137 19.7803 56.3092 19.7707 56.4066 19.7335C56.8868 19.6822 57.3711 19.6784 57.8595 19.722ZM61.0884 23.7836C60.7608 23.7682 60.2307 23.7695 59.498 23.7874C59.3416 23.7913 59.232 23.8227 59.1691 23.8817C59.0698 23.9747 59.0169 24.076 59.0105 24.1857C58.9778 24.7142 58.9948 25.2577 59.0614 25.8163C59.0622 25.8238 59.0648 25.831 59.069 25.8373C59.0732 25.8436 59.0788 25.8488 59.0854 25.8525C59.092 25.8562 59.0994 25.8582 59.1069 25.8585C59.1145 25.8587 59.122 25.8571 59.1288 25.8538C60.0653 25.41 60.7275 24.7344 61.1153 23.8269C61.1172 23.8222 61.1179 23.8171 61.1175 23.812C61.117 23.807 61.1154 23.8022 61.1128 23.7979C61.1102 23.7937 61.1066 23.7902 61.1023 23.7877C61.0981 23.7852 61.0933 23.7838 61.0884 23.7836Z" fill="white"/>
</svg>
