<svg width="101" height="40" viewBox="0 0 101 40" fill="none" xmlns="http://www.w3.org/2000/svg">
<path fill-rule="evenodd" clip-rule="evenodd" d="M17.3079 18.256V30.9561H21.481V27.8389V18.256C21.481 15.4829 23.7498 13.235 26.5484 13.235C29.347 13.235 31.6158 15.4829 31.6158 18.256V30.9561H35.7889V18.256C35.7889 13.1993 31.6518 9.10004 26.5484 9.10004C23.6644 9.10004 21.089 10.4091 19.3944 12.4603C17.6999 10.4091 15.1245 9.10004 12.2405 9.10004C7.13711 9.10004 3 13.1993 3 18.256V30.9561H7.17313V18.256C7.17313 15.4829 9.44187 13.235 12.2405 13.235C15.0391 13.235 17.3079 15.4829 17.3079 18.256Z" fill="white"/>
<path d="M37.073 30.9561V9.10004H41.2462V30.9561H37.073Z" fill="white"/>
<path d="M52.8514 31C50.7968 31 48.9751 30.5395 47.3862 29.6186C45.7974 28.6976 44.5646 27.411 43.688 25.7586C42.8114 24.0792 42.373 22.1696 42.373 20.0297C42.373 17.8898 42.8114 15.9937 43.688 14.3414C44.5646 12.6891 45.7974 11.4024 47.3862 10.4815C48.9751 9.56052 50.7968 9.10004 52.8514 9.10004C55.2895 9.10004 57.3441 9.73658 59.0152 11.0097C60.7136 12.2557 61.7409 13.9486 62.097 16.0885L58.3166 16.7792H58.1522C57.9057 15.5332 57.303 14.5175 56.3442 13.7319C55.3854 12.9464 54.2348 12.5536 52.8925 12.5536C50.9749 12.5536 49.4271 13.2444 48.2492 14.6258C47.0712 15.9802 46.4822 17.7815 46.4822 20.0297C46.4822 22.278 47.0712 24.0928 48.2492 25.4742C49.4271 26.8557 50.9749 27.5464 52.8925 27.5464C54.317 27.5464 55.5087 27.1536 56.4675 26.3681C57.4263 25.5555 58.0427 24.4178 58.3166 22.9551L62.2614 23.6865C61.8231 25.9618 60.7547 27.7495 59.0563 29.0497C57.3852 30.3499 55.3169 31 52.8514 31Z" fill="white"/>
<path d="M63.3721 19.4994C63.3721 13.7562 68.071 9.10004 73.8675 9.10004H76.7992V13.2134H73.8675C70.3638 13.2134 67.5235 16.0279 67.5235 19.4994V30.8546H63.3721V19.4994Z" fill="white"/>
<path fill-rule="evenodd" clip-rule="evenodd" d="M86.8949 27.1233C90.8667 27.1233 94.0864 23.9341 94.0864 20C94.0864 16.0659 90.8667 12.8766 86.8949 12.8766C82.9232 12.8766 79.7035 16.0659 79.7035 20C79.7035 23.9341 82.9232 27.1233 86.8949 27.1233ZM86.8949 30.9999C93.0282 30.9999 98.0001 26.0751 98.0001 20C98.0001 13.9248 93.0282 9 86.8949 9C80.7617 9 75.7898 13.9248 75.7898 20C75.7898 26.0751 80.7617 30.9999 86.8949 30.9999Z" fill="white"/>
</svg>
