<svg width="210" height="40" viewBox="0 0 210 40" fill="none" xmlns="http://www.w3.org/2000/svg">
<path d="M64.504 19.5194L53.967 16.9725C53.5891 16.8806 53.377 16.4914 53.5115 16.1389L56.5751 8.14136C56.8266 7.4901 55.9614 6.98287 55.4776 7.49776L49.4752 13.897C49.2173 14.1728 48.7668 14.1728 48.5072 13.897L42.2361 7.2112C41.7648 6.70858 40.9188 7.17902 41.1289 7.82722L43.7972 16.024C43.927 16.4178 43.6327 16.8239 43.2072 16.8453L2.6196 18.8558C1.79558 18.8972 1.79241 20.0726 2.61644 20.1185L43.1661 22.3987V22.4033C43.6044 22.4278 43.8937 22.8569 43.7386 23.2553L40.3112 32.1417C40.0583 32.796 40.9282 33.3063 41.4104 32.7853L48.4725 25.1815C48.7429 24.8904 49.2176 24.9042 49.4705 25.2091L55.4159 32.4282C55.8714 32.9814 56.7824 32.5033 56.5467 31.8306L53.5085 23.1618C53.3787 22.791 53.6255 22.3941 54.0271 22.3328L64.447 20.7591C65.1507 20.6533 65.1966 19.6879 64.5054 19.5209L64.504 19.5194Z" fill="white"/>
<path d="M206.76 25.2801C206.403 28.7793 204.082 31.7785 198.441 31.7785C192.299 31.7785 189.479 28.2436 189.479 22.4236C189.479 16.6036 192.407 13.1045 198.548 13.1045C204.439 13.1045 206.939 16.6036 206.939 22.4236V23.7091H194.37C194.62 26.9583 195.941 28.1722 198.476 28.1722C201.047 28.1722 202.011 26.9583 202.226 25.2801H206.76ZM194.406 20.7455H202.047C202.047 17.9962 201.19 16.7108 198.548 16.7108C195.906 16.7108 194.656 17.9605 194.406 20.7455Z" fill="white"/>
<path d="M161.84 6.42773H169.231L174.587 23.9949L179.943 6.42773H187.334V31.4217H182.513V13.1404L176.801 31.4217H172.373L166.66 13.1404V31.4217H161.84V6.42773Z" fill="white"/>
<path d="M157.624 17.5686C155.518 17.5686 154.232 18.4613 154.232 20.7107V31.4225H149.412V13.5696H154.161V15.9262C154.947 14.4622 156.089 13.4268 158.91 13.4268H160.41V17.5686H157.624Z" fill="white"/>
<path d="M147.451 25.2801C147.094 28.7793 144.773 31.7785 139.132 31.7785C132.991 31.7785 130.17 28.2436 130.17 22.4236C130.17 16.6036 133.098 13.1045 139.239 13.1045C145.131 13.1045 147.63 16.6036 147.63 22.4236V23.7091H135.062C135.311 26.9583 136.633 28.1722 139.168 28.1722C141.739 28.1722 142.703 26.9583 142.917 25.2801H147.451ZM135.097 20.7455H142.738C142.738 17.9962 141.881 16.7108 139.239 16.7108C136.597 16.7108 135.347 17.9605 135.097 20.7455Z" fill="white"/>
<path d="M121.479 13.1045C126.299 13.1045 129.084 15.8538 129.084 22.3165C129.084 29.4934 125.371 31.4215 121.586 31.4215C118.872 31.4215 117.551 30.5289 116.516 29.3149V38.2056H111.695V13.5687H116.266V15.5325C117.051 14.1757 118.229 13.1045 121.479 13.1045ZM116.373 22.2094C116.373 26.3512 117.373 27.8152 120.3 27.8152C123.228 27.8152 124.228 26.3512 124.228 22.2094C124.228 18.4603 123.228 16.7108 120.3 16.7108C117.373 16.7108 116.373 18.4603 116.373 22.2094Z" fill="white"/>
<path d="M109.209 31.4224H104.46V29.3872C103.675 30.8511 101.818 31.8865 98.9971 31.8865C94.7125 31.8865 92.9629 29.5657 92.9629 26.3521V13.5696H97.7831V24.9597C97.7831 27.2091 98.9257 28.1017 100.997 28.1017C103.103 28.1017 104.389 27.2091 104.389 24.9597V13.5696H109.209V31.4224Z" fill="white"/>
<path d="M80.8545 31.8867C74.4989 31.8867 70.3214 29.6372 70 22.9602H75.2487C75.2487 26.3166 76.5342 28.1019 80.6403 28.1019C84.6393 28.1019 85.6035 26.9592 85.6035 24.3528C85.6035 22.2817 84.925 21.282 82.497 20.8536L77.1769 19.8895C72.7136 19.0683 70.6427 17.3187 70.6427 12.8912C70.6427 8.17804 74.7132 6 80.069 6C86.1747 6 90.0309 8.49941 90.0309 13.9267H85.0678C85.0678 10.9988 83.5682 9.82051 80.319 9.82051C76.8198 9.82051 75.7843 10.8917 75.7843 12.9983C75.7843 15.0335 76.7127 15.462 78.855 15.8905L84.8893 17.1045C88.3171 17.7829 90.8164 19.3539 90.8164 24.5313C90.8164 29.7443 86.6389 31.8867 80.8545 31.8867Z" fill="white"/>
</svg>
