<svg width="56" height="40" viewBox="0 0 56 40" fill="none" xmlns="http://www.w3.org/2000/svg">
<path d="M51.6022 12.427C51.9869 12.8169 52.457 13.0118 53.0125 13.0118C53.5682 13.0118 54.0383 12.8169 54.423 12.427C54.8077 12.0155 54.9999 11.539 54.9999 10.9976C54.9999 10.4561 54.8077 9.99045 54.423 9.6006C54.0383 9.18909 53.5682 8.98334 53.0125 8.98334C52.457 8.98334 51.9869 9.18909 51.6022 9.6006C51.2176 9.99045 51.0251 10.4561 51.0251 10.9976C51.0251 11.539 51.2176 12.0155 51.6022 12.427Z" fill="white"/>
<path d="M32.467 12.427C32.8515 12.8169 33.3216 13.0118 33.8773 13.0118C34.4329 13.0118 34.9029 12.8169 35.2876 12.427C35.6722 12.0155 35.8647 11.539 35.8647 10.9976C35.8647 10.4561 35.6722 9.99045 35.2876 9.6006C34.9029 9.18909 34.4329 8.98334 33.8773 8.98334C33.3216 8.98334 32.8515 9.18909 32.467 9.6006C32.0823 9.99045 31.8899 10.4561 31.8899 10.9976C31.8899 11.539 32.0823 12.0155 32.467 12.427Z" fill="white"/>
<path d="M18.1837 12.427C18.5683 12.8169 19.0385 13.0118 19.594 13.0118C20.1496 13.0118 20.6198 12.8169 21.0044 12.427C21.3891 12.0155 21.5813 11.539 21.5813 10.9976C21.5813 10.4561 21.3891 9.99045 21.0044 9.6006C20.6198 9.18909 20.1496 8.98334 19.594 8.98334C19.0385 8.98334 18.5683 9.18909 18.1837 9.6006C17.799 9.99045 17.6067 10.4561 17.6067 10.9976C17.6067 11.539 17.799 12.0155 18.1837 12.427Z" fill="white"/>
<path d="M7.03639 30.0396L1 14.1089H4.317L8.65843 26.0969C8.74612 26.339 9.08398 26.339 9.17168 26.0969L13.5131 14.1089H16.8595L10.7937 30.0396H7.03639Z" fill="white"/>
<path d="M21.1504 30.0657H17.9888V14.1351H21.1504V30.0657Z" fill="white"/>
<path d="M22.731 30.0657V14.1351H25.5993L25.6621 16.2756C25.6666 16.4335 25.9206 16.4727 25.9843 16.3284C26.2593 15.7057 26.6139 15.2242 27.0481 14.8837C27.679 14.3847 28.4773 14.1351 29.4433 14.1351H30.9514V16.9799H29.4433C28.2408 16.9799 27.3438 17.2793 26.7525 17.8782C26.161 18.4771 25.8653 19.4054 25.8653 20.6631V30.0657H22.731Z" fill="white"/>
<path d="M35.4229 30.0657H32.2612V14.1351H35.4229V30.0657Z" fill="white"/>
<path fill-rule="evenodd" clip-rule="evenodd" d="M48.9773 14.941C47.7539 14.2016 46.3907 13.8319 44.8883 13.8319C43.3642 13.8319 41.9797 14.2016 40.7346 14.941C39.5111 15.6586 38.5344 16.6482 37.8047 17.9095C37.0962 19.1708 36.7422 20.5735 36.7422 22.1176C36.7422 23.6617 37.0962 25.0644 37.8047 26.3257C38.5344 27.5871 39.5111 28.5875 40.7346 29.3268C41.9797 30.0444 43.3642 30.4033 44.8883 30.4033C46.3907 30.4033 47.7539 30.0444 48.9773 29.3268C50.2224 28.5875 51.1991 27.5871 51.9074 26.3257C52.6373 25.0644 53.0021 23.6617 53.0021 22.1176C53.0021 20.5735 52.6373 19.1708 51.9074 17.9095C51.1991 16.6482 50.2224 15.6586 48.9773 14.941ZM49.4362 18.9946L45.2846 16.5653C45.031 16.4169 44.7184 16.4169 44.4646 16.5653L40.3132 18.9946C40.0594 19.1431 39.9032 19.4175 39.9032 19.7144V24.5729C39.9032 24.8698 40.0594 25.1442 40.3132 25.2927L44.4646 27.7219C44.7184 27.8704 45.031 27.8704 45.2846 27.7219L49.4362 25.2927C49.6898 25.1442 49.8462 24.8698 49.8462 24.5729V19.7144C49.8462 19.4175 49.6898 19.1431 49.4362 18.9946Z" fill="white"/>
</svg>
