<svg width="577" height="91" viewBox="0 0 577 91" fill="none" xmlns="http://www.w3.org/2000/svg">
<path d="M85.4835 71.8228C86.0535 72.8098 85.6966 73.9758 84.8606 74.5468C84.5386 74.7678 84.1456 74.8998 83.7056 74.8998H31.9785H2.05556C0.475565 74.8998 -0.51145 73.1908 0.27755 71.8228L4.93758 63.7418C5.07458 63.5028 5.32958 63.3568 5.60458 63.3568H80.1576C80.4326 63.3568 80.6866 63.5028 80.8236 63.7418L85.4835 71.8228Z" fill="#E2E2E2"/>
<path d="M76.5335 56.3027C76.8295 56.8157 76.4595 57.4568 75.8675 57.4568H43.1004C42.5634 57.4568 42.1915 56.9218 42.3695 56.4158C42.8785 54.9668 43.3345 53.4938 43.7355 51.9988C43.8654 51.5148 43.4974 51.0438 42.9964 51.0438H13.5924C12.9994 51.0438 12.6295 50.4028 12.9255 49.8898L17.2154 42.4507C17.3524 42.2117 17.6064 42.0648 17.8814 42.0648H67.8794C68.1544 42.0648 68.4084 42.2117 68.5464 42.4507L76.5335 56.3027Z" fill="#E2E2E2"/>
<path d="M64.2565 35.0118C64.5515 35.5248 64.1815 36.1658 63.5895 36.1658H45.9585C45.8875 36.1658 45.8306 36.1077 45.8306 36.0367C45.8306 34.1517 45.7445 32.2868 45.5785 30.4448C45.5435 30.0508 45.2115 29.7527 44.8165 29.7527H25.8696C25.2776 29.7527 24.9075 29.1118 25.2035 28.5988L28.7535 22.4418C28.8905 22.2038 29.1455 22.0568 29.4205 22.0568H56.3415C56.6165 22.0568 56.8706 22.2038 57.0076 22.4418L64.2565 35.0118Z" fill="#E2E2E2"/>
<path d="M41.1025 1.02675C41.8925 -0.34225 43.8685 -0.34225 44.6585 1.02675L52.7175 15.0027C53.0135 15.5157 52.6435 16.1567 52.0515 16.1567H43.0925C42.7635 16.1567 42.4715 15.9478 42.3615 15.6368C41.2565 12.4968 39.9025 9.47274 38.3255 6.58974C38.1955 6.35274 38.1975 6.06474 38.3325 5.83074L41.1025 1.02675Z" fill="#E2E2E2"/>
<path d="M116.135 75.0938V4.05475H127.741V38.1738L122.238 34.1718H164.862L159.459 38.1738V4.05475H171.065V75.0938H159.459V40.5748L164.862 44.5778H122.238L127.741 40.5748V75.0938H116.135ZM185.076 90.1028V80.8978H191.68C193.481 80.8978 194.815 80.6307 195.682 80.0967C196.549 79.5637 197.216 78.6628 197.683 77.3958L199.284 73.2928H195.782L176.571 21.7648H188.678L202.786 62.5878L216.293 21.7648H228.4L207.288 80.9977C206.154 84.1987 204.521 86.5008 202.385 87.9008C200.251 89.3688 197.316 90.1028 193.581 90.1028H185.076ZM231.415 90.1028V21.7648H242.321L242.621 33.1708L241.42 32.5707C242.754 28.6357 244.923 25.6668 247.924 23.6658C250.992 21.5978 254.561 20.5638 258.63 20.5638C263.766 20.5638 268.001 21.8647 271.337 24.4667C274.738 27.0007 277.273 30.3698 278.941 34.5718C280.608 38.7738 281.443 43.4097 281.443 48.4797C281.443 53.4827 280.575 58.1178 278.841 62.3868C277.173 66.5898 274.638 69.9577 271.237 72.4927C267.901 75.0277 263.666 76.2947 258.53 76.2947C255.861 76.2947 253.36 75.8277 251.025 74.8937C248.758 73.9597 246.79 72.6598 245.122 70.9918C243.521 69.2578 242.387 67.2227 241.72 64.8887L242.921 63.7878V90.1028H231.415ZM256.228 66.5898C260.297 66.5898 263.499 64.9887 265.834 61.7867C268.235 58.5847 269.436 54.1497 269.436 48.4797C269.436 42.7427 268.235 38.2738 265.834 35.0718C263.499 31.8708 260.297 30.2698 256.228 30.2698C253.493 30.2698 251.126 30.9368 249.124 32.2708C247.19 33.6048 245.656 35.6388 244.522 38.3738C243.455 41.1088 242.921 44.4777 242.921 48.4797C242.921 52.4817 243.455 55.8508 244.522 58.5848C245.589 61.2528 247.123 63.2547 249.124 64.5887C251.126 65.9227 253.493 66.5898 256.228 66.5898ZM310.21 76.2947C304.94 76.2947 300.372 75.1608 296.503 72.8928C292.701 70.5588 289.765 67.3227 287.697 63.1877C285.629 58.9857 284.595 54.0827 284.595 48.4797C284.595 42.8097 285.629 37.9067 287.697 33.7717C289.765 29.6357 292.701 26.4007 296.503 24.0657C300.305 21.7317 304.773 20.5638 309.909 20.5638C314.845 20.5638 319.182 21.6978 322.917 23.9658C326.652 26.1678 329.52 29.4028 331.522 33.6718C333.592 37.8738 334.622 42.9767 334.622 48.9797V51.6818H296.503C296.77 56.6838 298.103 60.4527 300.504 62.9877C302.972 65.4557 306.241 66.6898 310.31 66.6898C313.311 66.6898 315.813 66.0228 317.814 64.6888C319.815 63.2878 321.216 61.3537 322.016 58.8857L333.822 59.6857C332.422 64.7547 329.622 68.7908 325.418 71.7928C321.216 74.7938 316.146 76.2947 310.21 76.2947ZM296.503 43.4767H322.616C322.283 38.8747 320.95 35.5058 318.615 33.3718C316.346 31.1698 313.445 30.0698 309.909 30.0698C306.241 30.0698 303.239 31.2037 300.904 33.4717C298.57 35.7387 297.103 39.0747 296.503 43.4767ZM341.052 75.0938V21.7648H351.662L352.162 36.1727L351.162 35.9728C351.892 30.9698 353.362 27.3677 355.562 25.1667C357.832 22.8987 360.863 21.7648 364.663 21.7648H369.773V31.8707H364.663C362.003 31.8707 359.762 32.3038 357.962 33.1708C356.162 34.0388 354.792 35.3387 353.862 37.0737C352.992 38.8077 352.562 41.1087 352.562 43.9767V75.0938H341.052ZM394.122 76.2947C388.982 76.2947 384.682 75.5278 381.212 73.9938C377.742 72.4598 375.042 70.3248 373.102 67.5898C371.242 64.8548 370.173 61.7537 369.903 58.2847L381.712 57.6848C382.182 60.6198 383.382 62.9207 385.312 64.5887C387.312 66.2557 390.253 67.0898 394.122 67.0898C397.323 67.0898 399.823 66.5897 401.622 65.5887C403.492 64.5217 404.422 62.8538 404.422 60.5858C404.422 59.3188 404.123 58.2847 403.523 57.4847C402.923 56.6177 401.722 55.8838 399.922 55.2838C398.182 54.6168 395.622 53.9827 392.212 53.3828C386.882 52.4488 382.682 51.3148 379.612 49.9808C376.542 48.5798 374.372 46.8458 373.102 44.7778C371.842 42.7098 371.202 40.2087 371.202 37.2737C371.202 32.3377 373.042 28.3348 376.712 25.2668C380.442 22.1318 385.883 20.5638 393.013 20.5638C397.683 20.5638 401.592 21.3648 404.722 22.9658C407.922 24.4998 410.422 26.6007 412.232 29.2687C414.032 31.9367 415.163 34.9387 415.633 38.2737L403.922 38.8748C403.592 37.0738 402.953 35.5058 402.023 34.1718C401.093 32.7708 399.852 31.7038 398.322 30.9698C396.782 30.2358 394.952 29.8698 392.812 29.8698C389.552 29.8698 387.113 30.5028 385.513 31.7708C383.913 33.0378 383.112 34.7058 383.112 36.7728C383.112 38.3078 383.482 39.5748 384.212 40.5748C384.942 41.5088 386.142 42.3097 387.812 42.9767C389.482 43.5767 391.753 44.1108 394.622 44.5778C400.152 45.4448 404.492 46.5787 407.622 47.9797C410.823 49.3137 413.062 51.0148 414.332 53.0818C415.662 55.0828 416.332 57.5508 416.332 60.4858C416.332 63.8218 415.393 66.6898 413.533 69.0908C411.663 71.4258 409.062 73.2268 405.722 74.4938C402.392 75.6948 398.522 76.2947 394.122 76.2947ZM422.742 90.1028V21.7648H433.653L433.952 33.1708L432.753 32.5707C434.082 28.6357 436.253 25.6668 439.253 23.6658C442.323 21.5978 445.892 20.5638 449.962 20.5638C455.102 20.5638 459.332 21.8647 462.672 24.4667C466.072 27.0007 468.603 30.3698 470.273 34.5718C471.943 38.7738 472.773 43.4097 472.773 48.4797C472.773 53.4827 471.902 58.1178 470.172 62.3868C468.502 66.5898 465.972 69.9577 462.572 72.4927C459.232 75.0277 455.003 76.2947 449.862 76.2947C447.192 76.2947 444.692 75.8277 442.362 74.8937C440.092 73.9597 438.122 72.6598 436.452 70.9918C434.852 69.2578 433.722 67.2227 433.052 64.8887L434.253 63.7878V90.1028H422.742ZM447.562 66.5898C451.632 66.5898 454.833 64.9887 457.163 61.7867C459.563 58.5847 460.773 54.1497 460.773 48.4797C460.773 42.7427 459.563 38.2738 457.163 35.0718C454.833 31.8708 451.632 30.2698 447.562 30.2698C444.822 30.2698 442.462 30.9368 440.452 32.2708C438.522 33.6048 436.992 35.6388 435.852 38.3738C434.782 41.1088 434.253 44.4777 434.253 48.4797C434.253 52.4817 434.782 55.8508 435.852 58.5848C436.922 61.2528 438.452 63.2547 440.452 64.5887C442.462 65.9227 444.822 66.5898 447.562 66.5898ZM501.542 76.2947C496.272 76.2947 491.702 75.1608 487.832 72.8928C484.032 70.5588 481.093 67.3227 479.033 63.1877C476.963 58.9857 475.932 54.0827 475.932 48.4797C475.932 42.8097 476.963 37.9067 479.033 33.7717C481.093 29.6357 484.032 26.4007 487.832 24.0657C491.632 21.7317 496.102 20.5638 501.242 20.5638C506.172 20.5638 510.513 21.6978 514.253 23.9658C517.983 26.1678 520.852 29.4028 522.852 33.6718C524.922 37.8738 525.952 42.9767 525.952 48.9797V51.6818H487.832C488.102 56.6838 489.432 60.4527 491.832 62.9877C494.302 65.4557 497.573 66.6898 501.643 66.6898C504.643 66.6898 507.143 66.0228 509.143 64.6888C511.143 63.2878 512.552 61.3537 513.352 58.8857L525.153 59.6857C523.753 64.7547 520.953 68.7908 516.753 71.7928C512.552 74.7938 507.482 76.2947 501.542 76.2947ZM487.832 43.4767H513.952C513.612 38.8747 512.282 35.5058 509.942 33.3718C507.682 31.1698 504.772 30.0698 501.242 30.0698C497.572 30.0698 494.572 31.2037 492.232 33.4717C489.902 35.7387 488.432 39.0747 487.832 43.4767ZM544.982 75.0938C541.312 75.0938 538.372 74.1608 536.172 72.2928C533.972 70.4248 532.872 67.4238 532.872 63.2878V4.05475H544.383V62.0867C544.383 63.4207 544.712 64.3888 545.383 64.9888C546.053 65.5888 546.982 65.8887 548.182 65.8887H552.283V75.0938H544.982ZM568.822 75.0938C565.152 75.0938 562.223 74.1608 560.023 72.2928C557.823 70.4248 556.722 67.4238 556.722 63.2878V4.05475H568.222V62.0867C568.222 63.4207 568.562 64.3888 569.222 64.9888C569.892 65.5888 570.823 65.8887 572.023 65.8887H576.133V75.0938H568.822Z" fill="#E2E2E2"/>
</svg>
